<?xml version="1.0" encoding="UTF-8"?>
<!-- Created with Inkscape (http://www.inkscape.org/) -->
<svg width="169.32" height="126.94" version="1.1" viewBox="0 0 44.8 33.586" xmlns="http://www.w3.org/2000/svg" xmlns:cc="http://creativecommons.org/ns#" xmlns:dc="http://purl.org/dc/elements/1.1/" xmlns:osb="http://www.openswatchbook.org/uri/2009/osb" xmlns:rdf="http://www.w3.org/1999/02/22-rdf-syntax-ns#">
 <metadata>
  <rdf:RDF>
   <cc:Work rdf:about="">
    <dc:format>image/svg+xml</dc:format>
    <dc:type rdf:resource="http://purl.org/dc/dcmitype/StillImage"/>
    <dc:title/>
   </cc:Work>
  </rdf:RDF>
 </metadata>
 <g transform="translate(-96.078 -61.288)" display="none">
  <rect x="18.928" y="41.044" width="147.16" height="86.972" fill="#09002c" stroke="#000" stroke-width=".32206"/>
 </g>
 <g transform="translate(-96.078 -61.288)" display="none">
  <path transform="translate(.8221 2.8943)" d="m56.546 87.311c-9.8941 1.1384-5.1769 11.865-7.4257 10.244-5.1905-3.7431-5.7291-8.106-5.7291-10.742 0-5.3423 2.8264-7.8443 5.9964-8.5038 13.327-2.7729 12.128 8.4304 7.1584 9.0022zm6.7469 0c9.8941 1.1384 5.1769 11.865 7.4257 10.244 5.1905-3.7431 5.7291-8.106 5.7291-10.742 0-5.3423-2.8264-7.8443-5.9964-8.5038-13.327-2.7729-12.128 8.4304-7.1584 9.0022z" fill="#6c166c"/>
  <path transform="scale(.26458)" d="m254.77 305.24c-16.124-0.0157-23.55 7.318-25.195 15.348 0.48881 2.3855 0.45626 4.8279 0 7.1621 1.3033 6.6676 6.1342 12.418 12.75 13.18 37.395 4.3026 19.567 44.846 28.066 38.717 19.618-14.147 21.652-30.636 21.652-40.6 0-20.191-10.683-29.648-22.664-32.141-5.5093-1.1463-10.36-1.6619-14.609-1.666zm-25.195 22.51c-0.45627-2.3342-0.48885-4.7766 0-7.1621-1.0025-4.8923-4.1537-9.5222-10.109-12.393v32.141c5.2486-1.7782 8.9866-6.8416 10.109-12.586z" fill-opacity=".225"/>
  <g>
   <path transform="matrix(1.0524 0 0 1.221 -36.267 6.0142)" d="m92.179 69.175v6.0004s-1.5991 0.2063-5.0554-0.6523c-3.3995-0.84449 5.0554-5.3481 5.0554-5.3481zm0 0v6.0004s1.5991 0.2063 5.0554-0.6523c3.3995-0.84449-5.0554-5.3481-5.0554-5.3481z" fill="#3e3e3e" stroke-width=".2497"/>
   <path transform="matrix(1.5518 0 0 1.5179 9.7858 -28.141)" d="m24.949 63.078c-0.04971-5.2509 7.8881-7.3689 7.8881-7.3689v23.812c-0.46548-9e-6 -2.6077-0.10778-2.9255-0.67156-2.7124-4.8119-4.9233-11.618-4.9626-15.772zm15.776 0c0.04971-5.2509-7.8881-7.3689-7.8881-7.3689v23.812c0.46548-9e-6 2.6077-0.10778 2.9255-0.67156 2.7124-4.8119 4.9233-11.618 4.9626-15.772z" fill="#ffe8ff" stroke-width=".26458"/>
   <ellipse cx="60.741" cy="67.498" rx="8.7643" ry="4.8192" fill="#520052"/>
   <path transform="scale(.26458)" d="m229.57 236.89a33.125 18.214 0 0 0-33.125 18.215 33.125 18.214 0 0 0 0.0859 1.3047 29.564 18.445 2.2333 0 0 29.682 14.49 29.564 18.445 2.2333 0 0 28.404-18.467 29.564 18.445 2.2333 0 0-10.602-13.693 33.125 18.214 0 0 0-14.445-1.8496z" fill="#7a0079"/>
   <ellipse transform="matrix(.93388 -.35759 .60708 .79464 0 0)" cx="5.9576" cy="84.508" rx="1.5354" ry="1.003" fill="#fafafa"/>
  </g>
  <path transform="scale(.26458)" d="m275.5 261.89c-1.0636 5.6336-11.884 60.709-29.658 65.125-12.262 3.0464-15.531-20.189-15.531-20.189l-0.74023 35.139s-4.3782 3.508-9.832 1.8125c-6.5092-2.0236-15.276-15.027-18.502-20.104 3.4429 7.8737 7.2179 15.45 11.176 22.318 1.8639 3.2343 14.428 3.8535 17.158 3.8535 2.73-5e-5 15.294-0.61918 17.158-3.8535 14.56-25.265 26.649-60.105 28.771-84.102z" fill-opacity=".24"/>
  <g>
   <path transform="scale(.26458)" d="m227.68 353.23a23.571 12.679 0 0 0-18.848 5.0918c-3.105 3.7339-3.9463 6.9955 0.63672 8.3164 13.748 3.9623 20.107 3.0098 20.107 3.0098s6.3598 0.95253 20.107-3.0098c0.61523-0.17732 1.131-0.39108 1.5586-0.63477a23.571 12.679 0 0 0 0.01-0.0957 23.571 12.679 0 0 0-23.572-12.678z" fill="#4a4a4a"/>
   <path d="m61.994 87.188c0 5.4927-0.56056 13.5-1.252 13.5s-1.252-8.0077-1.252-13.5c0-5.4927 0.56056-6.3905 1.252-6.3905 0.69149-5e-6 1.252 0.89776 1.252 6.3905z" fill="#4e104e" stroke-width=".27997"/>
   <path transform="scale(.26458)" d="m229.57 305.38c-2.6135 0-4.7324 3.3924-4.7324 24.152 0 6.7244 0.24146 14.412 0.63086 21.779 0.85382 11.063 2.1529 20.018 3.6289 20.018 2.5737 0 4.6602-26.987 4.6602-45.498 0-9.9212-0.60221-15.368-1.5547-18.311-0.75255-1.6665-1.6587-2.1406-2.6328-2.1406z" fill="#6c166c" stroke-width=".99154"/>
  </g>
 </g>
 <g transform="translate(-96.078 -61.288)">
  <g transform="rotate(90 116.73 81.341)">
   <path transform="translate(53.55 3.9337)" d="m56.546 87.311c-9.8941 1.1384-5.1769 11.865-7.4257 10.244-5.1905-3.7431-5.7291-8.106-5.7291-10.742 0-5.3423 2.8264-7.8443 5.9964-8.5038 13.327-2.7729 12.128 8.4304 7.1584 9.0022zm6.7469 0c9.8941 1.1384 5.1769 11.865 7.4257 10.244 5.1905-3.7431 5.7291-8.106 5.7291-10.742 0-5.3423-2.8264-7.8443-5.9964-8.5038-13.327-2.7729-12.128 8.4304-7.1584 9.0022z" fill="#6c166c"/>
   <path d="m120.14 81.801c-4.2662-0.0042-6.2309 1.9362-6.6663 4.0607 0.12933 0.63116 0.12072 1.2774 0 1.895 0.34483 1.7641 1.623 3.2857 3.3734 3.4871 9.8941 1.1384 5.1772 11.865 7.4259 10.244 5.1905-3.7431 5.7288-8.1058 5.7288-10.742 0-5.3423-2.8265-7.8443-5.9965-8.5039-1.4577-0.30329-2.7412-0.43971-3.8654-0.4408zm-6.6663 5.9557c-0.12072-0.6176-0.12934-1.2638 0-1.895-0.26524-1.2944-1.099-2.5194-2.6748-3.2789v8.5039c1.3887-0.47047 2.3777-1.8102 2.6748-3.33z" fill-opacity=".225"/>
   <g>
    <path transform="matrix(1.0524 0 0 1.221 16.461 7.0536)" d="m92.179 69.175v6.0004s-1.5991 0.2063-5.0554-0.6523c-3.3995-0.84449 5.0554-5.3481 5.0554-5.3481zm0 0v6.0004s1.5991 0.2063 5.0554-0.6523c3.3995-0.84449-5.0554-5.3481-5.0554-5.3481z" fill="#3e3e3e" stroke-width=".2497"/>
    <path transform="matrix(1.5518 0 0 1.5179 62.514 -27.101)" d="m24.949 63.078c-0.04971-5.2509 7.8881-7.3689 7.8881-7.3689v23.812c-0.46548-9e-6 -2.6077-0.10778-2.9255-0.67156-2.7124-4.8119-4.9233-11.618-4.9626-15.772zm15.776 0c0.04971-5.2509-7.8881-7.3689-7.8881-7.3689v23.812c0.46548-9e-6 2.6077-0.10778 2.9255-0.67156 2.7124-4.8119 4.9233-11.618 4.9626-15.772z" fill="#ffe8ff" stroke-width=".26458"/>
    <ellipse cx="113.47" cy="68.537" rx="8.7643" ry="4.8192" fill="#520052"/>
    <path d="m113.47 63.718a8.7643 4.8192 0 0 0-8.7643 4.8193 8.7643 4.8192 0 0 0 0.0227 0.3452 7.8222 4.8802 2.2333 0 0 7.8533 3.8339 7.8222 4.8802 2.2333 0 0 7.5153-4.886 7.8222 4.8802 2.2333 0 0-2.805-3.623 8.7643 4.8192 0 0 0-3.822-0.48938z" fill="#7a0079"/>
    <ellipse transform="matrix(.93388 -.35759 .60708 .79464 0 0)" cx="48.982" cy="105.18" rx="1.5354" ry="1.003" fill="#fafafa"/>
   </g>
   <path d="m125.62 70.33c-0.28142 1.4906-3.1443 16.063-7.8471 17.231-3.2442 0.80602-4.1093-5.3418-4.1093-5.3418l-0.19585 9.2971s-1.1584 0.92816-2.6014 0.47956c-1.7222-0.53541-4.0418-3.976-4.8953-5.3191 0.91094 2.0833 1.9097 4.0879 2.9569 5.9051 0.49315 0.85575 3.8174 1.0196 4.5398 1.0196 0.72232-1.3e-5 4.0466-0.16382 4.5398-1.0196 3.8523-6.6848 7.0508-15.903 7.6125-22.252z" fill-opacity=".24"/>
   <g>
    <path d="m112.97 94.499a6.2366 3.3545 0 0 0-4.9868 1.3472c-0.82155 0.98792-1.0441 1.8509 0.16846 2.2004 3.6374 1.0484 5.3201 0.79633 5.3201 0.79633s1.6827 0.25202 5.3201-0.79633c0.16278-0.04692 0.29924-0.10347 0.41238-0.16795a6.2366 3.3545 0 0 0 3e-3 -0.02532 6.2366 3.3545 0 0 0-6.2368-3.3543z" fill="#4a4a4a"/>
    <path d="m114.72 88.228c0 5.4927-0.56056 13.5-1.252 13.5s-1.252-8.0077-1.252-13.5c0-5.4927 0.56056-6.3905 1.252-6.3905 0.69149-5e-6 1.252 0.89776 1.252 6.3905z" fill="#4e104e" stroke-width=".27997"/>
    <path d="m113.47 81.837c-0.69149 0-1.2521 0.89756-1.2521 6.3903 0 1.7792 0.0639 3.8131 0.16692 5.7624 0.2259 2.9271 0.56961 5.2963 0.96014 5.2963 0.68095 0 1.233-7.1404 1.233-12.038 0-2.625-0.15933-4.066-0.41134-4.8447-0.19911-0.44092-0.43886-0.56638-0.6966-0.56638z" fill="#6c166c" stroke-width=".26234"/>
   </g>
  </g>
 </g>
</svg>
