<?xml version="1.0" encoding="UTF-8"?>
<!-- Created with Inkscape (http://www.inkscape.org/) -->
<svg width="43.886" height="43.886" version="1.1" viewBox="0 0 11.612 11.612" xmlns="http://www.w3.org/2000/svg" xmlns:cc="http://creativecommons.org/ns#" xmlns:dc="http://purl.org/dc/elements/1.1/" xmlns:osb="http://www.openswatchbook.org/uri/2009/osb" xmlns:rdf="http://www.w3.org/1999/02/22-rdf-syntax-ns#">
 <defs>
  <clipPath id="clipPath5140">
   <path d="m-5.3948 7.2212h52.917v52.917h-52.917z" fill-opacity="0"/>
  </clipPath>
  <clipPath id="clipPath5144">
   <path d="m-5.3948 7.2212h52.917v52.917h-52.917z" fill-opacity="0"/>
  </clipPath>
  <clipPath id="clipPath5148">
   <path d="m-5.3948 7.2212h52.917v52.917h-52.917z" fill-opacity="0"/>
  </clipPath>
  <clipPath id="clipPath5152">
   <path d="m-5.3948 7.2212h52.917v52.917h-52.917z" fill-opacity="0"/>
  </clipPath>
  <clipPath id="clipPath5156">
   <path d="m-5.3948 7.2212h52.917v52.917h-52.917z" fill-opacity="0"/>
  </clipPath>
  <clipPath id="clipPath5160">
   <path d="m-5.3948 7.2212h52.917v52.917h-52.917z" fill-opacity="0"/>
  </clipPath>
  <clipPath id="clipPath5164">
   <path d="m-5.3948 7.2212h52.917v52.917h-52.917z" fill-opacity="0"/>
  </clipPath>
  <clipPath id="clipPath5168">
   <path d="m-5.3948 7.2212h52.917v52.917h-52.917z" fill-opacity="0"/>
  </clipPath>
  <clipPath id="clipPath5172">
   <path d="m49.729 66.288h52.917v52.917h-52.917z" fill-opacity="0"/>
  </clipPath>
  <clipPath id="clipPath5176">
   <path d="m31.271-7.3842-2.4803 52.859-52.859-2.4803 2.4803-52.859z" fill-opacity="0"/>
  </clipPath>
  <clipPath id="clipPath5180">
   <path d="m-5.3948 7.2212h52.917v52.917h-52.917z" fill-opacity="0"/>
  </clipPath>
  <clipPath id="clipPath5184">
   <path d="m-5.3948 7.2212h52.917v52.917h-52.917z" fill-opacity="0"/>
  </clipPath>
  <clipPath id="clipPath5188">
   <path d="m-5.3948 7.2212h52.917v52.917h-52.917z" fill-opacity="0"/>
  </clipPath>
  <clipPath id="clipPath5192">
   <path d="m-5.3948 7.2212h52.917v52.917h-52.917z" fill-opacity="0"/>
  </clipPath>
  <clipPath id="clipPath5196">
   <path d="m98.704 32.278h52.917v52.917h-52.917z" fill-opacity="0"/>
  </clipPath>
  <clipPath id="clipPath5200">
   <path d="m45.787 32.278h52.917v52.917h-52.917z" fill-opacity="0"/>
  </clipPath>
  <clipPath id="clipPath5204">
   <path d="m-43.614-9.6863h52.917v52.917h-52.917z" fill-opacity="0"/>
  </clipPath>
  <clipPath id="clipPath5208">
   <path d="m9.3023-9.6863h52.917v52.917h-52.917z" fill-opacity="0"/>
  </clipPath>
  <clipPath id="clipPath5212">
   <path d="m-43.614-9.6863h52.917v52.917h-52.917z" fill-opacity="0"/>
  </clipPath>
  <clipPath id="clipPath5216">
   <path d="m-22.567 20.114h52.917v52.917h-52.917z" fill-opacity="0"/>
  </clipPath>
  <clipPath id="clipPath5220">
   <path d="m-22.567-32.802h52.917v52.917h-52.917z" fill-opacity="0"/>
  </clipPath>
  <clipPath id="clipPath5224">
   <path d="m-54.436-41.219h52.917v52.917h-52.917z" fill-opacity="0"/>
  </clipPath>
  <clipPath id="clipPath5228">
   <path d="m-1.5194-41.219h52.917v52.917h-52.917z" fill-opacity="0"/>
  </clipPath>
  <clipPath id="clipPath5232">
   <path d="m-54.436 11.698h52.917v52.917h-52.917z" fill-opacity="0"/>
  </clipPath>
  <clipPath id="clipPath5236">
   <path d="m-1.5194 11.698h52.917v52.917h-52.917z" fill-opacity="0"/>
  </clipPath>
 </defs>
 <metadata>
  <rdf:RDF>
   <cc:Work rdf:about="">
    <dc:format>image/svg+xml</dc:format>
    <dc:type rdf:resource="http://purl.org/dc/dcmitype/StillImage"/>
    <dc:title/>
   </cc:Work>
  </rdf:RDF>
 </metadata>
 <g transform="translate(-205.31 -63.48)" display="none">
  <rect x="96.334" y=".054807" width="168.86" height="94.682" fill="#09002c" stroke="#000" stroke-width=".35995"/>
 </g>
 <g transform="translate(-109.23 -63.857)" display="none">
  <rect x="4.811" y="5.3806" width="52.917" height="52.917" fill="#3e3e3e"/>
  <g fill="#fdfffe">
   <path d="m11.909 71.433s0.19957-0.04695 0.26881-0.11644c0.06843-0.06867 0.12806-0.28044 0.12806-0.28044s0.03673 0.22072 0.11289 0.29361c0.06739 0.0645 0.28398 0.10326 0.28398 0.10326s-0.21767 0.06175-0.29107 0.13515c-0.05889 0.05889-0.10581 0.26172-0.10581 0.26172s-0.05939-0.21176-0.12452-0.2769c-0.06716-0.06716-0.27235-0.11998-0.27235-0.11998z"/>
   <path d="m18.875 75.12s0.27516-0.06474 0.37064-0.16055c0.09435-0.09468 0.17658-0.38667 0.17658-0.38667s0.05065 0.30432 0.15566 0.40483c0.09292 0.08893 0.39156 0.14238 0.39156 0.14238s-0.30012 0.08514-0.40132 0.18635c-0.0812 0.0812-0.14589 0.36087-0.14589 0.36087s-0.08189-0.29198-0.1717-0.38179c-0.0926-0.0926-0.37552-0.16543-0.37552-0.16543z"/>
   <path d="m10.823 76.372s0.14917-0.0351 0.20093-0.08703c0.05115-0.05133 0.09572-0.20962 0.09572-0.20962s0.02746 0.16498 0.08438 0.21946c0.05037 0.04821 0.21227 0.07719 0.21227 0.07719s-0.1627 0.04616-0.21756 0.10102c-0.04402 0.04402-0.07909 0.19563-0.07909 0.19563s-0.04439-0.15829-0.09308-0.20697c-0.0502-0.0502-0.20357-0.08968-0.20357-0.08968z"/>
   <path d="m22.583 79.83s0.19117-0.04498 0.2575-0.11154c0.06555-0.06578 0.12267-0.26863 0.12267-0.26863s0.03519 0.21143 0.10814 0.28125c0.06456 0.06178 0.27203 0.09892 0.27203 0.09892s-0.20851 0.05915-0.27882 0.12946c-0.05641 0.05641-0.10136 0.25071-0.10136 0.25071s-0.05689-0.20285-0.11928-0.26524c-0.06433-0.06433-0.26089-0.11493-0.26089-0.11493z"/>
   <path d="m27.795 76.69s0.19117-0.04498 0.2575-0.11154c0.06555-0.06578 0.12268-0.26863 0.12268-0.26863s0.03519 0.21143 0.10814 0.28125c0.06456 0.06178 0.27203 0.09892 0.27203 0.09892s-0.20851 0.05915-0.27882 0.12946c-0.05641 0.05641-0.10135 0.25071-0.10135 0.25071s-0.05689-0.20285-0.11928-0.26524c-0.06433-0.06433-0.26089-0.11493-0.26089-0.11493z"/>
   <path d="m14.632 78.995s0.19117-0.04498 0.2575-0.11154c0.06555-0.06578 0.12268-0.26863 0.12268-0.26863s0.03519 0.21143 0.10814 0.28125c0.06456 0.06178 0.27203 0.09892 0.27203 0.09892s-0.20851 0.05915-0.27882 0.12946c-0.05641 0.05641-0.10135 0.25071-0.10135 0.25071s-0.05689-0.20285-0.11928-0.26524c-0.06433-0.06433-0.26089-0.11493-0.26089-0.11493z"/>
   <path d="m26.457 65.317s0.02511 0.20347 0.08671 0.27982c0.06087 0.07545 0.26496 0.15762 0.26496 0.15762s-0.22339 0.01267-0.30409 0.0805c-0.0714 0.06003-0.13334 0.27116-0.13334 0.27116s-0.03787-0.22307-0.10291-0.30397c-0.05218-0.06491-0.24876-0.13347-0.24876-0.13347s0.21694-0.03616 0.28873-0.09388c0.07402-0.05951 0.1487-0.25779 0.1487-0.25779z"/>
   <path d="m22.615 69.017s0.03463 0.28055 0.11956 0.38582c0.08393 0.10403 0.36532 0.21732 0.36532 0.21732s-0.30802 0.01747-0.41928 0.111c-0.09845 0.08277-0.18386 0.37388-0.18386 0.37388s-0.05221-0.30756-0.14189-0.41911c-0.07195-0.0895-0.34299-0.18403-0.34299-0.18403s0.29912-0.04986 0.3981-0.12944c0.10206-0.08205 0.20504-0.35544 0.20504-0.35544z"/>
   <path d="m22.38 63.917s0.01878 0.15209 0.06481 0.20915c0.0455 0.0564 0.19804 0.11781 0.19804 0.11781s-0.16698 0.0095-0.2273 0.06017c-0.05337 0.04487-0.09967 0.20268-0.09967 0.20268s-0.02831-0.16673-0.07692-0.2272c-0.03901-0.04852-0.18594-0.09976-0.18594-0.09976s0.16216-0.02703 0.21582-0.07017c0.05533-0.04448 0.11115-0.19269 0.11115-0.19269z"/>
   <path d="m26.696 71.981s0.02406 0.19491 0.08306 0.26804c0.05831 0.07227 0.2538 0.15098 0.2538 0.15098s-0.21399 0.01213-0.29129 0.07711c-0.06839 0.0575-0.12774 0.25975-0.12774 0.25975s-0.03627-0.21368-0.09858-0.29117c-0.04998-0.06218-0.23829-0.12785-0.23829-0.12785s0.20781-0.03464 0.27658-0.08993c0.0709-0.057 0.14244-0.24694 0.14244-0.24694z"/>
   <path d="m17.33 70.02s0.02406 0.19491 0.08306 0.26804c0.05831 0.07227 0.2538 0.15098 0.2538 0.15098s-0.21399 0.01213-0.29129 0.07712c-0.06839 0.0575-0.12774 0.25975-0.12774 0.25975s-0.03627-0.21368-0.09858-0.29117c-0.04998-0.06218-0.23829-0.12785-0.23829-0.12785s0.20781-0.03464 0.27658-0.08993c0.0709-0.05701 0.14244-0.24694 0.14244-0.24694z"/>
   <path d="m15.399 63.958s0.02406 0.19491 0.08306 0.26804c0.05831 0.07227 0.2538 0.15098 0.2538 0.15098s-0.21399 0.01213-0.29129 0.07711c-0.06839 0.0575-0.12774 0.25975-0.12774 0.25975s-0.03627-0.21368-0.09858-0.29117c-0.04998-0.06218-0.23829-0.12785-0.23829-0.12785s0.20781-0.03464 0.27658-0.08993c0.0709-0.057 0.14244-0.24694 0.14244-0.24694z"/>
   <path d="m10.989 66.411s0.03463 0.28055 0.11956 0.38582c0.08393 0.10403 0.36532 0.21732 0.36532 0.21732s-0.30802 0.01747-0.41928 0.111c-0.09845 0.08277-0.18386 0.37388-0.18386 0.37388s-0.05221-0.30756-0.14189-0.41911c-0.07195-0.0895-0.34299-0.18403-0.34299-0.18403s0.29912-0.04986 0.3981-0.12944c0.10206-0.08205 0.20504-0.35544 0.20504-0.35544z"/>
  </g>
 </g>
 <g transform="translate(3.3333e-6)">
  <path transform="translate(-109.23 -63.857)" d="m109.49 69.663s2.7864-0.65557 3.7532-1.6257c0.95541-0.95875 1.7881-3.9155 1.7881-3.9155s0.51289 3.0817 1.5762 4.0994c0.94093 0.90053 3.965 1.4418 3.965 1.4418s-3.0391 0.86215-4.0639 1.887c-0.82225 0.82225-1.4773 3.6542-1.4773 3.6542s-0.82924-2.9567-1.7386-3.8661c-0.93769-0.93769-3.8026-1.6752-3.8026-1.6752z" fill="#fdfffe"/>
 </g>
 <g transform="translate(-109.23 -63.857)" display="none">
  <g transform="translate(86.273 -3.9742)" display="inline" fill="#fdfffe">
   <g transform="translate(-3.8754 -4.4768)" clip-path="url(#clipPath5236)">
    <path d="m-1.6973 17.985s0.19957-0.04695 0.26881-0.11644c0.06843-0.06867 0.12806-0.28044 0.12806-0.28044s0.036732 0.22072 0.11289 0.29361c0.067393 0.0645 0.28398 0.10326 0.28398 0.10326s-0.21767 0.06175-0.29107 0.13515c-0.058893 0.05889-0.10581 0.26172-0.10581 0.26172s-0.059393-0.21176-0.12453-0.2769c-0.067159-0.06716-0.27235-0.11998-0.27235-0.11998z"/>
    <path d="m5.269 21.672s0.27516-0.06474 0.37064-0.16055c0.094352-0.09468 0.17658-0.38667 0.17658-0.38667s0.050646 0.30432 0.15565 0.40483c0.092922 0.08893 0.39156 0.14238 0.39156 0.14238s-0.30012 0.08514-0.40133 0.18635c-0.081202 0.0812-0.14589 0.36087-0.14589 0.36087s-0.081892-0.29198-0.1717-0.38179c-0.092599-0.0926-0.37552-0.16543-0.37552-0.16543z"/>
    <path d="m-2.7825 22.924s0.14917-0.0351 0.20093-0.08703c0.051149-0.05133 0.095723-0.20962 0.095723-0.20962s0.027456 0.16498 0.084382 0.21946c0.050374 0.04821 0.21227 0.07719 0.21227 0.07719s-0.1627 0.04616-0.21756 0.10102c-0.04402 0.04402-0.079087 0.19563-0.079087 0.19563s-0.044394-0.15829-0.093078-0.20697c-0.050199-0.0502-0.20357-0.08968-0.20357-0.08968z"/>
    <path d="m8.9774 26.382s0.19117-0.04498 0.2575-0.11154c0.06555-0.06578 0.12267-0.26863 0.12267-0.26863s0.035186 0.21143 0.10814 0.28125c0.064557 0.06178 0.27203 0.09892 0.27203 0.09892s-0.20851 0.05915-0.27882 0.12946c-0.056414 0.05641-0.10135 0.25071-0.10135 0.25071s-0.056894-0.20285-0.11928-0.26524c-0.064332-0.06433-0.26089-0.11493-0.26089-0.11493z"/>
    <path d="m14.189 23.242s0.19117-0.04498 0.2575-0.11154c0.06555-0.06578 0.12268-0.26863 0.12268-0.26863s0.03519 0.21143 0.10814 0.28125c0.06456 0.06178 0.27203 0.09892 0.27203 0.09892s-0.20851 0.05915-0.27882 0.12946c-0.05641 0.05641-0.10135 0.25071-0.10135 0.25071s-0.05689-0.20285-0.11928-0.26524c-0.06433-0.06433-0.26089-0.11493-0.26089-0.11493z"/>
    <path d="m1.0261 25.547s0.19117-0.04498 0.2575-0.11154c0.06555-0.06578 0.12267-0.26863 0.12267-0.26863s0.035186 0.21143 0.10814 0.28125c0.064557 0.06178 0.27203 0.09892 0.27203 0.09892s-0.20851 0.05915-0.27882 0.12946c-0.056414 0.05641-0.10135 0.25071-0.10135 0.25071s-0.056894-0.20285-0.11928-0.26524c-0.064332-0.06433-0.26089-0.11493-0.26089-0.11493z"/>
    <path d="m12.851 11.869s0.02511 0.20347 0.08671 0.27982c0.06087 0.07545 0.26496 0.15762 0.26496 0.15762s-0.22339 0.01267-0.30409 0.0805c-0.0714 0.06003-0.13334 0.27116-0.13334 0.27116s-0.03787-0.22307-0.10291-0.30397c-0.05218-0.06491-0.24876-0.13347-0.24876-0.13347s0.21694-0.03616 0.28873-0.09388c0.07402-0.05951 0.1487-0.25779 0.1487-0.25779z"/>
    <path d="m9.0095 15.569s0.034628 0.28055 0.11956 0.38582c0.08393 0.10403 0.36532 0.21732 0.36532 0.21732s-0.30802 0.01747-0.41928 0.111c-0.09845 0.08277-0.18386 0.37388-0.18386 0.37388s-0.052212-0.30756-0.14189-0.41911c-0.07195-0.0895-0.34299-0.18403-0.34299-0.18403s0.29912-0.04986 0.3981-0.12944c0.10206-0.08205 0.20504-0.35544 0.20504-0.35544z"/>
    <path d="m8.7741 10.469s0.018776 0.15209 0.064809 0.20915c0.045503 0.0564 0.19804 0.11781 0.19804 0.11781s-0.16698 0.0095-0.2273 0.06017c-0.053371 0.04487-0.099675 0.20268-0.099675 0.20268s-0.028309-0.16673-0.07692-0.2272c-0.039006-0.04852-0.18594-0.09976-0.18594-0.09976s0.16216-0.02703 0.21582-0.07017c0.055331-0.04448 0.11115-0.19269 0.11115-0.19269z"/>
    <path d="m13.09 18.533s0.02406 0.19491 0.08306 0.26804c0.05831 0.07227 0.2538 0.15098 0.2538 0.15098s-0.21399 0.01213-0.29129 0.07711c-0.06839 0.0575-0.12774 0.25975-0.12774 0.25975s-0.03627-0.21368-0.09858-0.29117c-0.04998-0.06218-0.23829-0.12785-0.23829-0.12785s0.20781-0.03464 0.27658-0.08993c0.0709-0.057 0.14244-0.24694 0.14244-0.24694z"/>
    <path d="m3.724 16.572s0.02406 0.19491 0.083062 0.26804c0.058312 0.07227 0.2538 0.15098 0.2538 0.15098s-0.21399 0.01213-0.29129 0.07712c-0.068394 0.0575-0.12774 0.25975-0.12774 0.25975s-0.036273-0.21368-0.098576-0.29117c-0.049984-0.06218-0.23829-0.12785-0.23829-0.12785s0.20781-0.03464 0.27658-0.08993c0.070905-0.05701 0.14245-0.24694 0.14245-0.24694z"/>
    <path d="m1.793 10.51s0.02406 0.19491 0.083062 0.26804c0.058312 0.07227 0.2538 0.15098 0.2538 0.15098s-0.21399 0.01213-0.29129 0.07711c-0.068394 0.0575-0.12774 0.25975-0.12774 0.25975s-0.036273-0.21368-0.098577-0.29117c-0.049984-0.06218-0.23829-0.12785-0.23829-0.12785s0.20781-0.03464 0.27658-0.08993c0.070905-0.057 0.14245-0.24694 0.14245-0.24694z"/>
    <path d="m-2.6167 12.963s0.034628 0.28055 0.11956 0.38582c0.08393 0.10403 0.36532 0.21732 0.36532 0.21732s-0.30802 0.01747-0.41928 0.111c-0.09845 0.08277-0.18386 0.37388-0.18386 0.37388s-0.052212-0.30756-0.14189-0.41911c-0.07195-0.0895-0.34299-0.18403-0.34299-0.18403s0.29912-0.04986 0.3981-0.12944c0.10206-0.08205 0.20504-0.35544 0.20504-0.35544z"/>
   </g>
   <g transform="translate(49.041 -4.4768)" clip-path="url(#clipPath5232)">
    <path d="m-1.6973 17.985s0.19957-0.04695 0.26881-0.11644c0.06843-0.06867 0.12806-0.28044 0.12806-0.28044s0.036732 0.22072 0.11289 0.29361c0.067393 0.0645 0.28398 0.10326 0.28398 0.10326s-0.21767 0.06175-0.29107 0.13515c-0.058893 0.05889-0.10581 0.26172-0.10581 0.26172s-0.059393-0.21176-0.12453-0.2769c-0.067159-0.06716-0.27235-0.11998-0.27235-0.11998z"/>
    <path d="m5.269 21.672s0.27516-0.06474 0.37064-0.16055c0.094352-0.09468 0.17658-0.38667 0.17658-0.38667s0.050646 0.30432 0.15565 0.40483c0.092922 0.08893 0.39156 0.14238 0.39156 0.14238s-0.30012 0.08514-0.40133 0.18635c-0.081202 0.0812-0.14589 0.36087-0.14589 0.36087s-0.081892-0.29198-0.1717-0.38179c-0.092599-0.0926-0.37552-0.16543-0.37552-0.16543z"/>
    <path d="m-2.7825 22.924s0.14917-0.0351 0.20093-0.08703c0.051149-0.05133 0.095723-0.20962 0.095723-0.20962s0.027456 0.16498 0.084382 0.21946c0.050374 0.04821 0.21227 0.07719 0.21227 0.07719s-0.1627 0.04616-0.21756 0.10102c-0.04402 0.04402-0.079087 0.19563-0.079087 0.19563s-0.044394-0.15829-0.093078-0.20697c-0.050199-0.0502-0.20357-0.08968-0.20357-0.08968z"/>
    <path d="m8.9774 26.382s0.19117-0.04498 0.2575-0.11154c0.06555-0.06578 0.12267-0.26863 0.12267-0.26863s0.035186 0.21143 0.10814 0.28125c0.064557 0.06178 0.27203 0.09892 0.27203 0.09892s-0.20851 0.05915-0.27882 0.12946c-0.056414 0.05641-0.10135 0.25071-0.10135 0.25071s-0.056894-0.20285-0.11928-0.26524c-0.064332-0.06433-0.26089-0.11493-0.26089-0.11493z"/>
    <path d="m14.189 23.242s0.19117-0.04498 0.2575-0.11154c0.06555-0.06578 0.12268-0.26863 0.12268-0.26863s0.03519 0.21143 0.10814 0.28125c0.06456 0.06178 0.27203 0.09892 0.27203 0.09892s-0.20851 0.05915-0.27882 0.12946c-0.05641 0.05641-0.10135 0.25071-0.10135 0.25071s-0.05689-0.20285-0.11928-0.26524c-0.06433-0.06433-0.26089-0.11493-0.26089-0.11493z"/>
    <path d="m1.0261 25.547s0.19117-0.04498 0.2575-0.11154c0.06555-0.06578 0.12267-0.26863 0.12267-0.26863s0.035186 0.21143 0.10814 0.28125c0.064557 0.06178 0.27203 0.09892 0.27203 0.09892s-0.20851 0.05915-0.27882 0.12946c-0.056414 0.05641-0.10135 0.25071-0.10135 0.25071s-0.056894-0.20285-0.11928-0.26524c-0.064332-0.06433-0.26089-0.11493-0.26089-0.11493z"/>
    <path d="m12.851 11.869s0.02511 0.20347 0.08671 0.27982c0.06087 0.07545 0.26496 0.15762 0.26496 0.15762s-0.22339 0.01267-0.30409 0.0805c-0.0714 0.06003-0.13334 0.27116-0.13334 0.27116s-0.03787-0.22307-0.10291-0.30397c-0.05218-0.06491-0.24876-0.13347-0.24876-0.13347s0.21694-0.03616 0.28873-0.09388c0.07402-0.05951 0.1487-0.25779 0.1487-0.25779z"/>
    <path d="m9.0095 15.569s0.034628 0.28055 0.11956 0.38582c0.08393 0.10403 0.36532 0.21732 0.36532 0.21732s-0.30802 0.01747-0.41928 0.111c-0.09845 0.08277-0.18386 0.37388-0.18386 0.37388s-0.052212-0.30756-0.14189-0.41911c-0.07195-0.0895-0.34299-0.18403-0.34299-0.18403s0.29912-0.04986 0.3981-0.12944c0.10206-0.08205 0.20504-0.35544 0.20504-0.35544z"/>
    <path d="m8.7741 10.469s0.018776 0.15209 0.064809 0.20915c0.045503 0.0564 0.19804 0.11781 0.19804 0.11781s-0.16698 0.0095-0.2273 0.06017c-0.053371 0.04487-0.099675 0.20268-0.099675 0.20268s-0.028309-0.16673-0.07692-0.2272c-0.039006-0.04852-0.18594-0.09976-0.18594-0.09976s0.16216-0.02703 0.21582-0.07017c0.055331-0.04448 0.11115-0.19269 0.11115-0.19269z"/>
    <path d="m13.09 18.533s0.02406 0.19491 0.08306 0.26804c0.05831 0.07227 0.2538 0.15098 0.2538 0.15098s-0.21399 0.01213-0.29129 0.07711c-0.06839 0.0575-0.12774 0.25975-0.12774 0.25975s-0.03627-0.21368-0.09858-0.29117c-0.04998-0.06218-0.23829-0.12785-0.23829-0.12785s0.20781-0.03464 0.27658-0.08993c0.0709-0.057 0.14244-0.24694 0.14244-0.24694z"/>
    <path d="m3.724 16.572s0.02406 0.19491 0.083062 0.26804c0.058312 0.07227 0.2538 0.15098 0.2538 0.15098s-0.21399 0.01213-0.29129 0.07712c-0.068394 0.0575-0.12774 0.25975-0.12774 0.25975s-0.036273-0.21368-0.098576-0.29117c-0.049984-0.06218-0.23829-0.12785-0.23829-0.12785s0.20781-0.03464 0.27658-0.08993c0.070905-0.05701 0.14245-0.24694 0.14245-0.24694z"/>
    <path d="m1.793 10.51s0.02406 0.19491 0.083062 0.26804c0.058312 0.07227 0.2538 0.15098 0.2538 0.15098s-0.21399 0.01213-0.29129 0.07711c-0.068394 0.0575-0.12774 0.25975-0.12774 0.25975s-0.036273-0.21368-0.098577-0.29117c-0.049984-0.06218-0.23829-0.12785-0.23829-0.12785s0.20781-0.03464 0.27658-0.08993c0.070905-0.057 0.14245-0.24694 0.14245-0.24694z"/>
    <path d="m-2.6167 12.963s0.034628 0.28055 0.11956 0.38582c0.08393 0.10403 0.36532 0.21732 0.36532 0.21732s-0.30802 0.01747-0.41928 0.111c-0.09845 0.08277-0.18386 0.37388-0.18386 0.37388s-0.052212-0.30756-0.14189-0.41911c-0.07195-0.0895-0.34299-0.18403-0.34299-0.18403s0.29912-0.04986 0.3981-0.12944c0.10206-0.08205 0.20504-0.35544 0.20504-0.35544z"/>
   </g>
   <g transform="translate(-3.8754 48.44)" clip-path="url(#clipPath5228)">
    <path d="m-1.6973 17.985s0.19957-0.04695 0.26881-0.11644c0.06843-0.06867 0.12806-0.28044 0.12806-0.28044s0.036732 0.22072 0.11289 0.29361c0.067393 0.0645 0.28398 0.10326 0.28398 0.10326s-0.21767 0.06175-0.29107 0.13515c-0.058893 0.05889-0.10581 0.26172-0.10581 0.26172s-0.059393-0.21176-0.12453-0.2769c-0.067159-0.06716-0.27235-0.11998-0.27235-0.11998z"/>
    <path d="m5.269 21.672s0.27516-0.06474 0.37064-0.16055c0.094352-0.09468 0.17658-0.38667 0.17658-0.38667s0.050646 0.30432 0.15565 0.40483c0.092922 0.08893 0.39156 0.14238 0.39156 0.14238s-0.30012 0.08514-0.40133 0.18635c-0.081202 0.0812-0.14589 0.36087-0.14589 0.36087s-0.081892-0.29198-0.1717-0.38179c-0.092599-0.0926-0.37552-0.16543-0.37552-0.16543z"/>
    <path d="m-2.7825 22.924s0.14917-0.0351 0.20093-0.08703c0.051149-0.05133 0.095723-0.20962 0.095723-0.20962s0.027456 0.16498 0.084382 0.21946c0.050374 0.04821 0.21227 0.07719 0.21227 0.07719s-0.1627 0.04616-0.21756 0.10102c-0.04402 0.04402-0.079087 0.19563-0.079087 0.19563s-0.044394-0.15829-0.093078-0.20697c-0.050199-0.0502-0.20357-0.08968-0.20357-0.08968z"/>
    <path d="m8.9774 26.382s0.19117-0.04498 0.2575-0.11154c0.06555-0.06578 0.12267-0.26863 0.12267-0.26863s0.035186 0.21143 0.10814 0.28125c0.064557 0.06178 0.27203 0.09892 0.27203 0.09892s-0.20851 0.05915-0.27882 0.12946c-0.056414 0.05641-0.10135 0.25071-0.10135 0.25071s-0.056894-0.20285-0.11928-0.26524c-0.064332-0.06433-0.26089-0.11493-0.26089-0.11493z"/>
    <path d="m14.189 23.242s0.19117-0.04498 0.2575-0.11154c0.06555-0.06578 0.12268-0.26863 0.12268-0.26863s0.03519 0.21143 0.10814 0.28125c0.06456 0.06178 0.27203 0.09892 0.27203 0.09892s-0.20851 0.05915-0.27882 0.12946c-0.05641 0.05641-0.10135 0.25071-0.10135 0.25071s-0.05689-0.20285-0.11928-0.26524c-0.06433-0.06433-0.26089-0.11493-0.26089-0.11493z"/>
    <path d="m1.0261 25.547s0.19117-0.04498 0.2575-0.11154c0.06555-0.06578 0.12267-0.26863 0.12267-0.26863s0.035186 0.21143 0.10814 0.28125c0.064557 0.06178 0.27203 0.09892 0.27203 0.09892s-0.20851 0.05915-0.27882 0.12946c-0.056414 0.05641-0.10135 0.25071-0.10135 0.25071s-0.056894-0.20285-0.11928-0.26524c-0.064332-0.06433-0.26089-0.11493-0.26089-0.11493z"/>
    <path d="m12.851 11.869s0.02511 0.20347 0.08671 0.27982c0.06087 0.07545 0.26496 0.15762 0.26496 0.15762s-0.22339 0.01267-0.30409 0.0805c-0.0714 0.06003-0.13334 0.27116-0.13334 0.27116s-0.03787-0.22307-0.10291-0.30397c-0.05218-0.06491-0.24876-0.13347-0.24876-0.13347s0.21694-0.03616 0.28873-0.09388c0.07402-0.05951 0.1487-0.25779 0.1487-0.25779z"/>
    <path d="m9.0095 15.569s0.034628 0.28055 0.11956 0.38582c0.08393 0.10403 0.36532 0.21732 0.36532 0.21732s-0.30802 0.01747-0.41928 0.111c-0.09845 0.08277-0.18386 0.37388-0.18386 0.37388s-0.052212-0.30756-0.14189-0.41911c-0.07195-0.0895-0.34299-0.18403-0.34299-0.18403s0.29912-0.04986 0.3981-0.12944c0.10206-0.08205 0.20504-0.35544 0.20504-0.35544z"/>
    <path d="m8.7741 10.469s0.018776 0.15209 0.064809 0.20915c0.045503 0.0564 0.19804 0.11781 0.19804 0.11781s-0.16698 0.0095-0.2273 0.06017c-0.053371 0.04487-0.099675 0.20268-0.099675 0.20268s-0.028309-0.16673-0.07692-0.2272c-0.039006-0.04852-0.18594-0.09976-0.18594-0.09976s0.16216-0.02703 0.21582-0.07017c0.055331-0.04448 0.11115-0.19269 0.11115-0.19269z"/>
    <path d="m13.09 18.533s0.02406 0.19491 0.08306 0.26804c0.05831 0.07227 0.2538 0.15098 0.2538 0.15098s-0.21399 0.01213-0.29129 0.07711c-0.06839 0.0575-0.12774 0.25975-0.12774 0.25975s-0.03627-0.21368-0.09858-0.29117c-0.04998-0.06218-0.23829-0.12785-0.23829-0.12785s0.20781-0.03464 0.27658-0.08993c0.0709-0.057 0.14244-0.24694 0.14244-0.24694z"/>
    <path d="m3.724 16.572s0.02406 0.19491 0.083062 0.26804c0.058312 0.07227 0.2538 0.15098 0.2538 0.15098s-0.21399 0.01213-0.29129 0.07712c-0.068394 0.0575-0.12774 0.25975-0.12774 0.25975s-0.036273-0.21368-0.098576-0.29117c-0.049984-0.06218-0.23829-0.12785-0.23829-0.12785s0.20781-0.03464 0.27658-0.08993c0.070905-0.05701 0.14245-0.24694 0.14245-0.24694z"/>
    <path d="m1.793 10.51s0.02406 0.19491 0.083062 0.26804c0.058312 0.07227 0.2538 0.15098 0.2538 0.15098s-0.21399 0.01213-0.29129 0.07711c-0.068394 0.0575-0.12774 0.25975-0.12774 0.25975s-0.036273-0.21368-0.098577-0.29117c-0.049984-0.06218-0.23829-0.12785-0.23829-0.12785s0.20781-0.03464 0.27658-0.08993c0.070905-0.057 0.14245-0.24694 0.14245-0.24694z"/>
    <path d="m-2.6167 12.963s0.034628 0.28055 0.11956 0.38582c0.08393 0.10403 0.36532 0.21732 0.36532 0.21732s-0.30802 0.01747-0.41928 0.111c-0.09845 0.08277-0.18386 0.37388-0.18386 0.37388s-0.052212-0.30756-0.14189-0.41911c-0.07195-0.0895-0.34299-0.18403-0.34299-0.18403s0.29912-0.04986 0.3981-0.12944c0.10206-0.08205 0.20504-0.35544 0.20504-0.35544z"/>
   </g>
   <g transform="translate(49.041 48.44)" clip-path="url(#clipPath5224)">
    <path d="m-1.6973 17.985s0.19957-0.04695 0.26881-0.11644c0.06843-0.06867 0.12806-0.28044 0.12806-0.28044s0.036732 0.22072 0.11289 0.29361c0.067393 0.0645 0.28398 0.10326 0.28398 0.10326s-0.21767 0.06175-0.29107 0.13515c-0.058893 0.05889-0.10581 0.26172-0.10581 0.26172s-0.059393-0.21176-0.12453-0.2769c-0.067159-0.06716-0.27235-0.11998-0.27235-0.11998z"/>
    <path d="m5.269 21.672s0.27516-0.06474 0.37064-0.16055c0.094352-0.09468 0.17658-0.38667 0.17658-0.38667s0.050646 0.30432 0.15565 0.40483c0.092922 0.08893 0.39156 0.14238 0.39156 0.14238s-0.30012 0.08514-0.40133 0.18635c-0.081202 0.0812-0.14589 0.36087-0.14589 0.36087s-0.081892-0.29198-0.1717-0.38179c-0.092599-0.0926-0.37552-0.16543-0.37552-0.16543z"/>
    <path d="m-2.7825 22.924s0.14917-0.0351 0.20093-0.08703c0.051149-0.05133 0.095723-0.20962 0.095723-0.20962s0.027456 0.16498 0.084382 0.21946c0.050374 0.04821 0.21227 0.07719 0.21227 0.07719s-0.1627 0.04616-0.21756 0.10102c-0.04402 0.04402-0.079087 0.19563-0.079087 0.19563s-0.044394-0.15829-0.093078-0.20697c-0.050199-0.0502-0.20357-0.08968-0.20357-0.08968z"/>
    <path d="m8.9774 26.382s0.19117-0.04498 0.2575-0.11154c0.06555-0.06578 0.12267-0.26863 0.12267-0.26863s0.035186 0.21143 0.10814 0.28125c0.064557 0.06178 0.27203 0.09892 0.27203 0.09892s-0.20851 0.05915-0.27882 0.12946c-0.056414 0.05641-0.10135 0.25071-0.10135 0.25071s-0.056894-0.20285-0.11928-0.26524c-0.064332-0.06433-0.26089-0.11493-0.26089-0.11493z"/>
    <path d="m14.189 23.242s0.19117-0.04498 0.2575-0.11154c0.06555-0.06578 0.12268-0.26863 0.12268-0.26863s0.03519 0.21143 0.10814 0.28125c0.06456 0.06178 0.27203 0.09892 0.27203 0.09892s-0.20851 0.05915-0.27882 0.12946c-0.05641 0.05641-0.10135 0.25071-0.10135 0.25071s-0.05689-0.20285-0.11928-0.26524c-0.06433-0.06433-0.26089-0.11493-0.26089-0.11493z"/>
    <path d="m1.0261 25.547s0.19117-0.04498 0.2575-0.11154c0.06555-0.06578 0.12267-0.26863 0.12267-0.26863s0.035186 0.21143 0.10814 0.28125c0.064557 0.06178 0.27203 0.09892 0.27203 0.09892s-0.20851 0.05915-0.27882 0.12946c-0.056414 0.05641-0.10135 0.25071-0.10135 0.25071s-0.056894-0.20285-0.11928-0.26524c-0.064332-0.06433-0.26089-0.11493-0.26089-0.11493z"/>
    <path d="m12.851 11.869s0.02511 0.20347 0.08671 0.27982c0.06087 0.07545 0.26496 0.15762 0.26496 0.15762s-0.22339 0.01267-0.30409 0.0805c-0.0714 0.06003-0.13334 0.27116-0.13334 0.27116s-0.03787-0.22307-0.10291-0.30397c-0.05218-0.06491-0.24876-0.13347-0.24876-0.13347s0.21694-0.03616 0.28873-0.09388c0.07402-0.05951 0.1487-0.25779 0.1487-0.25779z"/>
    <path d="m9.0095 15.569s0.034628 0.28055 0.11956 0.38582c0.08393 0.10403 0.36532 0.21732 0.36532 0.21732s-0.30802 0.01747-0.41928 0.111c-0.09845 0.08277-0.18386 0.37388-0.18386 0.37388s-0.052212-0.30756-0.14189-0.41911c-0.07195-0.0895-0.34299-0.18403-0.34299-0.18403s0.29912-0.04986 0.3981-0.12944c0.10206-0.08205 0.20504-0.35544 0.20504-0.35544z"/>
    <path d="m8.7741 10.469s0.018776 0.15209 0.064809 0.20915c0.045503 0.0564 0.19804 0.11781 0.19804 0.11781s-0.16698 0.0095-0.2273 0.06017c-0.053371 0.04487-0.099675 0.20268-0.099675 0.20268s-0.028309-0.16673-0.07692-0.2272c-0.039006-0.04852-0.18594-0.09976-0.18594-0.09976s0.16216-0.02703 0.21582-0.07017c0.055331-0.04448 0.11115-0.19269 0.11115-0.19269z"/>
    <path d="m13.09 18.533s0.02406 0.19491 0.08306 0.26804c0.05831 0.07227 0.2538 0.15098 0.2538 0.15098s-0.21399 0.01213-0.29129 0.07711c-0.06839 0.0575-0.12774 0.25975-0.12774 0.25975s-0.03627-0.21368-0.09858-0.29117c-0.04998-0.06218-0.23829-0.12785-0.23829-0.12785s0.20781-0.03464 0.27658-0.08993c0.0709-0.057 0.14244-0.24694 0.14244-0.24694z"/>
    <path d="m3.724 16.572s0.02406 0.19491 0.083062 0.26804c0.058312 0.07227 0.2538 0.15098 0.2538 0.15098s-0.21399 0.01213-0.29129 0.07712c-0.068394 0.0575-0.12774 0.25975-0.12774 0.25975s-0.036273-0.21368-0.098576-0.29117c-0.049984-0.06218-0.23829-0.12785-0.23829-0.12785s0.20781-0.03464 0.27658-0.08993c0.070905-0.05701 0.14245-0.24694 0.14245-0.24694z"/>
    <path d="m1.793 10.51s0.02406 0.19491 0.083062 0.26804c0.058312 0.07227 0.2538 0.15098 0.2538 0.15098s-0.21399 0.01213-0.29129 0.07711c-0.068394 0.0575-0.12774 0.25975-0.12774 0.25975s-0.036273-0.21368-0.098577-0.29117c-0.049984-0.06218-0.23829-0.12785-0.23829-0.12785s0.20781-0.03464 0.27658-0.08993c0.070905-0.057 0.14245-0.24694 0.14245-0.24694z"/>
    <path d="m-2.6167 12.963s0.034628 0.28055 0.11956 0.38582c0.08393 0.10403 0.36532 0.21732 0.36532 0.21732s-0.30802 0.01747-0.41928 0.111c-0.09845 0.08277-0.18386 0.37388-0.18386 0.37388s-0.052212-0.30756-0.14189-0.41911c-0.07195-0.0895-0.34299-0.18403-0.34299-0.18403s0.29912-0.04986 0.3981-0.12944c0.10206-0.08205 0.20504-0.35544 0.20504-0.35544z"/>
   </g>
   <g transform="translate(17.172 40.024)" clip-path="url(#clipPath5220)">
    <path d="m-1.6973 17.985s0.19957-0.04695 0.26881-0.11644c0.06843-0.06867 0.12806-0.28044 0.12806-0.28044s0.036732 0.22072 0.11289 0.29361c0.067393 0.0645 0.28398 0.10326 0.28398 0.10326s-0.21767 0.06175-0.29107 0.13515c-0.058893 0.05889-0.10581 0.26172-0.10581 0.26172s-0.059393-0.21176-0.12453-0.2769c-0.067159-0.06716-0.27235-0.11998-0.27235-0.11998z"/>
    <path d="m5.269 21.672s0.27516-0.06474 0.37064-0.16055c0.094352-0.09468 0.17658-0.38667 0.17658-0.38667s0.050646 0.30432 0.15565 0.40483c0.092922 0.08893 0.39156 0.14238 0.39156 0.14238s-0.30012 0.08514-0.40133 0.18635c-0.081202 0.0812-0.14589 0.36087-0.14589 0.36087s-0.081892-0.29198-0.1717-0.38179c-0.092599-0.0926-0.37552-0.16543-0.37552-0.16543z"/>
    <path d="m-2.7825 22.924s0.14917-0.0351 0.20093-0.08703c0.051149-0.05133 0.095723-0.20962 0.095723-0.20962s0.027456 0.16498 0.084382 0.21946c0.050374 0.04821 0.21227 0.07719 0.21227 0.07719s-0.1627 0.04616-0.21756 0.10102c-0.04402 0.04402-0.079087 0.19563-0.079087 0.19563s-0.044394-0.15829-0.093078-0.20697c-0.050199-0.0502-0.20357-0.08968-0.20357-0.08968z"/>
    <path d="m8.9774 26.382s0.19117-0.04498 0.2575-0.11154c0.06555-0.06578 0.12267-0.26863 0.12267-0.26863s0.035186 0.21143 0.10814 0.28125c0.064557 0.06178 0.27203 0.09892 0.27203 0.09892s-0.20851 0.05915-0.27882 0.12946c-0.056414 0.05641-0.10135 0.25071-0.10135 0.25071s-0.056894-0.20285-0.11928-0.26524c-0.064332-0.06433-0.26089-0.11493-0.26089-0.11493z"/>
    <path d="m14.189 23.242s0.19117-0.04498 0.2575-0.11154c0.06555-0.06578 0.12268-0.26863 0.12268-0.26863s0.03519 0.21143 0.10814 0.28125c0.06456 0.06178 0.27203 0.09892 0.27203 0.09892s-0.20851 0.05915-0.27882 0.12946c-0.05641 0.05641-0.10135 0.25071-0.10135 0.25071s-0.05689-0.20285-0.11928-0.26524c-0.06433-0.06433-0.26089-0.11493-0.26089-0.11493z"/>
    <path d="m1.0261 25.547s0.19117-0.04498 0.2575-0.11154c0.06555-0.06578 0.12267-0.26863 0.12267-0.26863s0.035186 0.21143 0.10814 0.28125c0.064557 0.06178 0.27203 0.09892 0.27203 0.09892s-0.20851 0.05915-0.27882 0.12946c-0.056414 0.05641-0.10135 0.25071-0.10135 0.25071s-0.056894-0.20285-0.11928-0.26524c-0.064332-0.06433-0.26089-0.11493-0.26089-0.11493z"/>
    <path d="m12.851 11.869s0.02511 0.20347 0.08671 0.27982c0.06087 0.07545 0.26496 0.15762 0.26496 0.15762s-0.22339 0.01267-0.30409 0.0805c-0.0714 0.06003-0.13334 0.27116-0.13334 0.27116s-0.03787-0.22307-0.10291-0.30397c-0.05218-0.06491-0.24876-0.13347-0.24876-0.13347s0.21694-0.03616 0.28873-0.09388c0.07402-0.05951 0.1487-0.25779 0.1487-0.25779z"/>
    <path d="m9.0095 15.569s0.034628 0.28055 0.11956 0.38582c0.08393 0.10403 0.36532 0.21732 0.36532 0.21732s-0.30802 0.01747-0.41928 0.111c-0.09845 0.08277-0.18386 0.37388-0.18386 0.37388s-0.052212-0.30756-0.14189-0.41911c-0.07195-0.0895-0.34299-0.18403-0.34299-0.18403s0.29912-0.04986 0.3981-0.12944c0.10206-0.08205 0.20504-0.35544 0.20504-0.35544z"/>
    <path d="m8.7741 10.469s0.018776 0.15209 0.064809 0.20915c0.045503 0.0564 0.19804 0.11781 0.19804 0.11781s-0.16698 0.0095-0.2273 0.06017c-0.053371 0.04487-0.099675 0.20268-0.099675 0.20268s-0.028309-0.16673-0.07692-0.2272c-0.039006-0.04852-0.18594-0.09976-0.18594-0.09976s0.16216-0.02703 0.21582-0.07017c0.055331-0.04448 0.11115-0.19269 0.11115-0.19269z"/>
    <path d="m13.09 18.533s0.02406 0.19491 0.08306 0.26804c0.05831 0.07227 0.2538 0.15098 0.2538 0.15098s-0.21399 0.01213-0.29129 0.07711c-0.06839 0.0575-0.12774 0.25975-0.12774 0.25975s-0.03627-0.21368-0.09858-0.29117c-0.04998-0.06218-0.23829-0.12785-0.23829-0.12785s0.20781-0.03464 0.27658-0.08993c0.0709-0.057 0.14244-0.24694 0.14244-0.24694z"/>
    <path d="m3.724 16.572s0.02406 0.19491 0.083062 0.26804c0.058312 0.07227 0.2538 0.15098 0.2538 0.15098s-0.21399 0.01213-0.29129 0.07712c-0.068394 0.0575-0.12774 0.25975-0.12774 0.25975s-0.036273-0.21368-0.098576-0.29117c-0.049984-0.06218-0.23829-0.12785-0.23829-0.12785s0.20781-0.03464 0.27658-0.08993c0.070905-0.05701 0.14245-0.24694 0.14245-0.24694z"/>
    <path d="m1.793 10.51s0.02406 0.19491 0.083062 0.26804c0.058312 0.07227 0.2538 0.15098 0.2538 0.15098s-0.21399 0.01213-0.29129 0.07711c-0.068394 0.0575-0.12774 0.25975-0.12774 0.25975s-0.036273-0.21368-0.098577-0.29117c-0.049984-0.06218-0.23829-0.12785-0.23829-0.12785s0.20781-0.03464 0.27658-0.08993c0.070905-0.057 0.14245-0.24694 0.14245-0.24694z"/>
    <path d="m-2.6167 12.963s0.034628 0.28055 0.11956 0.38582c0.08393 0.10403 0.36532 0.21732 0.36532 0.21732s-0.30802 0.01747-0.41928 0.111c-0.09845 0.08277-0.18386 0.37388-0.18386 0.37388s-0.052212-0.30756-0.14189-0.41911c-0.07195-0.0895-0.34299-0.18403-0.34299-0.18403s0.29912-0.04986 0.3981-0.12944c0.10206-0.08205 0.20504-0.35544 0.20504-0.35544z"/>
   </g>
   <g transform="translate(17.172 -12.893)" clip-path="url(#clipPath5216)">
    <path d="m-1.6973 17.985s0.19957-0.04695 0.26881-0.11644c0.06843-0.06867 0.12806-0.28044 0.12806-0.28044s0.036732 0.22072 0.11289 0.29361c0.067393 0.0645 0.28398 0.10326 0.28398 0.10326s-0.21767 0.06175-0.29107 0.13515c-0.058893 0.05889-0.10581 0.26172-0.10581 0.26172s-0.059393-0.21176-0.12453-0.2769c-0.067159-0.06716-0.27235-0.11998-0.27235-0.11998z"/>
    <path d="m5.269 21.672s0.27516-0.06474 0.37064-0.16055c0.094352-0.09468 0.17658-0.38667 0.17658-0.38667s0.050646 0.30432 0.15565 0.40483c0.092922 0.08893 0.39156 0.14238 0.39156 0.14238s-0.30012 0.08514-0.40133 0.18635c-0.081202 0.0812-0.14589 0.36087-0.14589 0.36087s-0.081892-0.29198-0.1717-0.38179c-0.092599-0.0926-0.37552-0.16543-0.37552-0.16543z"/>
    <path d="m-2.7825 22.924s0.14917-0.0351 0.20093-0.08703c0.051149-0.05133 0.095723-0.20962 0.095723-0.20962s0.027456 0.16498 0.084382 0.21946c0.050374 0.04821 0.21227 0.07719 0.21227 0.07719s-0.1627 0.04616-0.21756 0.10102c-0.04402 0.04402-0.079087 0.19563-0.079087 0.19563s-0.044394-0.15829-0.093078-0.20697c-0.050199-0.0502-0.20357-0.08968-0.20357-0.08968z"/>
    <path d="m8.9774 26.382s0.19117-0.04498 0.2575-0.11154c0.06555-0.06578 0.12267-0.26863 0.12267-0.26863s0.035186 0.21143 0.10814 0.28125c0.064557 0.06178 0.27203 0.09892 0.27203 0.09892s-0.20851 0.05915-0.27882 0.12946c-0.056414 0.05641-0.10135 0.25071-0.10135 0.25071s-0.056894-0.20285-0.11928-0.26524c-0.064332-0.06433-0.26089-0.11493-0.26089-0.11493z"/>
    <path d="m14.189 23.242s0.19117-0.04498 0.2575-0.11154c0.06555-0.06578 0.12268-0.26863 0.12268-0.26863s0.03519 0.21143 0.10814 0.28125c0.06456 0.06178 0.27203 0.09892 0.27203 0.09892s-0.20851 0.05915-0.27882 0.12946c-0.05641 0.05641-0.10135 0.25071-0.10135 0.25071s-0.05689-0.20285-0.11928-0.26524c-0.06433-0.06433-0.26089-0.11493-0.26089-0.11493z"/>
    <path d="m1.0261 25.547s0.19117-0.04498 0.2575-0.11154c0.06555-0.06578 0.12267-0.26863 0.12267-0.26863s0.035186 0.21143 0.10814 0.28125c0.064557 0.06178 0.27203 0.09892 0.27203 0.09892s-0.20851 0.05915-0.27882 0.12946c-0.056414 0.05641-0.10135 0.25071-0.10135 0.25071s-0.056894-0.20285-0.11928-0.26524c-0.064332-0.06433-0.26089-0.11493-0.26089-0.11493z"/>
    <path d="m12.851 11.869s0.02511 0.20347 0.08671 0.27982c0.06087 0.07545 0.26496 0.15762 0.26496 0.15762s-0.22339 0.01267-0.30409 0.0805c-0.0714 0.06003-0.13334 0.27116-0.13334 0.27116s-0.03787-0.22307-0.10291-0.30397c-0.05218-0.06491-0.24876-0.13347-0.24876-0.13347s0.21694-0.03616 0.28873-0.09388c0.07402-0.05951 0.1487-0.25779 0.1487-0.25779z"/>
    <path d="m9.0095 15.569s0.034628 0.28055 0.11956 0.38582c0.08393 0.10403 0.36532 0.21732 0.36532 0.21732s-0.30802 0.01747-0.41928 0.111c-0.09845 0.08277-0.18386 0.37388-0.18386 0.37388s-0.052212-0.30756-0.14189-0.41911c-0.07195-0.0895-0.34299-0.18403-0.34299-0.18403s0.29912-0.04986 0.3981-0.12944c0.10206-0.08205 0.20504-0.35544 0.20504-0.35544z"/>
    <path d="m8.7741 10.469s0.018776 0.15209 0.064809 0.20915c0.045503 0.0564 0.19804 0.11781 0.19804 0.11781s-0.16698 0.0095-0.2273 0.06017c-0.053371 0.04487-0.099675 0.20268-0.099675 0.20268s-0.028309-0.16673-0.07692-0.2272c-0.039006-0.04852-0.18594-0.09976-0.18594-0.09976s0.16216-0.02703 0.21582-0.07017c0.055331-0.04448 0.11115-0.19269 0.11115-0.19269z"/>
    <path d="m13.09 18.533s0.02406 0.19491 0.08306 0.26804c0.05831 0.07227 0.2538 0.15098 0.2538 0.15098s-0.21399 0.01213-0.29129 0.07711c-0.06839 0.0575-0.12774 0.25975-0.12774 0.25975s-0.03627-0.21368-0.09858-0.29117c-0.04998-0.06218-0.23829-0.12785-0.23829-0.12785s0.20781-0.03464 0.27658-0.08993c0.0709-0.057 0.14244-0.24694 0.14244-0.24694z"/>
    <path d="m3.724 16.572s0.02406 0.19491 0.083062 0.26804c0.058312 0.07227 0.2538 0.15098 0.2538 0.15098s-0.21399 0.01213-0.29129 0.07712c-0.068394 0.0575-0.12774 0.25975-0.12774 0.25975s-0.036273-0.21368-0.098576-0.29117c-0.049984-0.06218-0.23829-0.12785-0.23829-0.12785s0.20781-0.03464 0.27658-0.08993c0.070905-0.05701 0.14245-0.24694 0.14245-0.24694z"/>
    <path d="m1.793 10.51s0.02406 0.19491 0.083062 0.26804c0.058312 0.07227 0.2538 0.15098 0.2538 0.15098s-0.21399 0.01213-0.29129 0.07711c-0.068394 0.0575-0.12774 0.25975-0.12774 0.25975s-0.036273-0.21368-0.098577-0.29117c-0.049984-0.06218-0.23829-0.12785-0.23829-0.12785s0.20781-0.03464 0.27658-0.08993c0.070905-0.057 0.14245-0.24694 0.14245-0.24694z"/>
    <path d="m-2.6167 12.963s0.034628 0.28055 0.11956 0.38582c0.08393 0.10403 0.36532 0.21732 0.36532 0.21732s-0.30802 0.01747-0.41928 0.111c-0.09845 0.08277-0.18386 0.37388-0.18386 0.37388s-0.052212-0.30756-0.14189-0.41911c-0.07195-0.0895-0.34299-0.18403-0.34299-0.18403s0.29912-0.04986 0.3981-0.12944c0.10206-0.08205 0.20504-0.35544 0.20504-0.35544z"/>
   </g>
   <g transform="translate(38.22 16.907)" clip-path="url(#clipPath5212)">
    <path d="m-1.6973 17.985s0.19957-0.04695 0.26881-0.11644c0.06843-0.06867 0.12806-0.28044 0.12806-0.28044s0.036732 0.22072 0.11289 0.29361c0.067393 0.0645 0.28398 0.10326 0.28398 0.10326s-0.21767 0.06175-0.29107 0.13515c-0.058893 0.05889-0.10581 0.26172-0.10581 0.26172s-0.059393-0.21176-0.12453-0.2769c-0.067159-0.06716-0.27235-0.11998-0.27235-0.11998z"/>
    <path d="m5.269 21.672s0.27516-0.06474 0.37064-0.16055c0.094352-0.09468 0.17658-0.38667 0.17658-0.38667s0.050646 0.30432 0.15565 0.40483c0.092922 0.08893 0.39156 0.14238 0.39156 0.14238s-0.30012 0.08514-0.40133 0.18635c-0.081202 0.0812-0.14589 0.36087-0.14589 0.36087s-0.081892-0.29198-0.1717-0.38179c-0.092599-0.0926-0.37552-0.16543-0.37552-0.16543z"/>
    <path d="m-2.7825 22.924s0.14917-0.0351 0.20093-0.08703c0.051149-0.05133 0.095723-0.20962 0.095723-0.20962s0.027456 0.16498 0.084382 0.21946c0.050374 0.04821 0.21227 0.07719 0.21227 0.07719s-0.1627 0.04616-0.21756 0.10102c-0.04402 0.04402-0.079087 0.19563-0.079087 0.19563s-0.044394-0.15829-0.093078-0.20697c-0.050199-0.0502-0.20357-0.08968-0.20357-0.08968z"/>
    <path d="m8.9774 26.382s0.19117-0.04498 0.2575-0.11154c0.06555-0.06578 0.12267-0.26863 0.12267-0.26863s0.035186 0.21143 0.10814 0.28125c0.064557 0.06178 0.27203 0.09892 0.27203 0.09892s-0.20851 0.05915-0.27882 0.12946c-0.056414 0.05641-0.10135 0.25071-0.10135 0.25071s-0.056894-0.20285-0.11928-0.26524c-0.064332-0.06433-0.26089-0.11493-0.26089-0.11493z"/>
    <path d="m14.189 23.242s0.19117-0.04498 0.2575-0.11154c0.06555-0.06578 0.12268-0.26863 0.12268-0.26863s0.03519 0.21143 0.10814 0.28125c0.06456 0.06178 0.27203 0.09892 0.27203 0.09892s-0.20851 0.05915-0.27882 0.12946c-0.05641 0.05641-0.10135 0.25071-0.10135 0.25071s-0.05689-0.20285-0.11928-0.26524c-0.06433-0.06433-0.26089-0.11493-0.26089-0.11493z"/>
    <path d="m1.0261 25.547s0.19117-0.04498 0.2575-0.11154c0.06555-0.06578 0.12267-0.26863 0.12267-0.26863s0.035186 0.21143 0.10814 0.28125c0.064557 0.06178 0.27203 0.09892 0.27203 0.09892s-0.20851 0.05915-0.27882 0.12946c-0.056414 0.05641-0.10135 0.25071-0.10135 0.25071s-0.056894-0.20285-0.11928-0.26524c-0.064332-0.06433-0.26089-0.11493-0.26089-0.11493z"/>
    <path d="m12.851 11.869s0.02511 0.20347 0.08671 0.27982c0.06087 0.07545 0.26496 0.15762 0.26496 0.15762s-0.22339 0.01267-0.30409 0.0805c-0.0714 0.06003-0.13334 0.27116-0.13334 0.27116s-0.03787-0.22307-0.10291-0.30397c-0.05218-0.06491-0.24876-0.13347-0.24876-0.13347s0.21694-0.03616 0.28873-0.09388c0.07402-0.05951 0.1487-0.25779 0.1487-0.25779z"/>
    <path d="m9.0095 15.569s0.034628 0.28055 0.11956 0.38582c0.08393 0.10403 0.36532 0.21732 0.36532 0.21732s-0.30802 0.01747-0.41928 0.111c-0.09845 0.08277-0.18386 0.37388-0.18386 0.37388s-0.052212-0.30756-0.14189-0.41911c-0.07195-0.0895-0.34299-0.18403-0.34299-0.18403s0.29912-0.04986 0.3981-0.12944c0.10206-0.08205 0.20504-0.35544 0.20504-0.35544z"/>
    <path d="m8.7741 10.469s0.018776 0.15209 0.064809 0.20915c0.045503 0.0564 0.19804 0.11781 0.19804 0.11781s-0.16698 0.0095-0.2273 0.06017c-0.053371 0.04487-0.099675 0.20268-0.099675 0.20268s-0.028309-0.16673-0.07692-0.2272c-0.039006-0.04852-0.18594-0.09976-0.18594-0.09976s0.16216-0.02703 0.21582-0.07017c0.055331-0.04448 0.11115-0.19269 0.11115-0.19269z"/>
    <path d="m13.09 18.533s0.02406 0.19491 0.08306 0.26804c0.05831 0.07227 0.2538 0.15098 0.2538 0.15098s-0.21399 0.01213-0.29129 0.07711c-0.06839 0.0575-0.12774 0.25975-0.12774 0.25975s-0.03627-0.21368-0.09858-0.29117c-0.04998-0.06218-0.23829-0.12785-0.23829-0.12785s0.20781-0.03464 0.27658-0.08993c0.0709-0.057 0.14244-0.24694 0.14244-0.24694z"/>
    <path d="m3.724 16.572s0.02406 0.19491 0.083062 0.26804c0.058312 0.07227 0.2538 0.15098 0.2538 0.15098s-0.21399 0.01213-0.29129 0.07712c-0.068394 0.0575-0.12774 0.25975-0.12774 0.25975s-0.036273-0.21368-0.098576-0.29117c-0.049984-0.06218-0.23829-0.12785-0.23829-0.12785s0.20781-0.03464 0.27658-0.08993c0.070905-0.05701 0.14245-0.24694 0.14245-0.24694z"/>
    <path d="m1.793 10.51s0.02406 0.19491 0.083062 0.26804c0.058312 0.07227 0.2538 0.15098 0.2538 0.15098s-0.21399 0.01213-0.29129 0.07711c-0.068394 0.0575-0.12774 0.25975-0.12774 0.25975s-0.036273-0.21368-0.098577-0.29117c-0.049984-0.06218-0.23829-0.12785-0.23829-0.12785s0.20781-0.03464 0.27658-0.08993c0.070905-0.057 0.14245-0.24694 0.14245-0.24694z"/>
    <path d="m-2.6167 12.963s0.034628 0.28055 0.11956 0.38582c0.08393 0.10403 0.36532 0.21732 0.36532 0.21732s-0.30802 0.01747-0.41928 0.111c-0.09845 0.08277-0.18386 0.37388-0.18386 0.37388s-0.052212-0.30756-0.14189-0.41911c-0.07195-0.0895-0.34299-0.18403-0.34299-0.18403s0.29912-0.04986 0.3981-0.12944c0.10206-0.08205 0.20504-0.35544 0.20504-0.35544z"/>
   </g>
   <g transform="translate(-14.697 16.907)" clip-path="url(#clipPath5208)">
    <path d="m-1.6973 17.985s0.19957-0.04695 0.26881-0.11644c0.06843-0.06867 0.12806-0.28044 0.12806-0.28044s0.036732 0.22072 0.11289 0.29361c0.067393 0.0645 0.28398 0.10326 0.28398 0.10326s-0.21767 0.06175-0.29107 0.13515c-0.058893 0.05889-0.10581 0.26172-0.10581 0.26172s-0.059393-0.21176-0.12453-0.2769c-0.067159-0.06716-0.27235-0.11998-0.27235-0.11998z"/>
    <path d="m5.269 21.672s0.27516-0.06474 0.37064-0.16055c0.094352-0.09468 0.17658-0.38667 0.17658-0.38667s0.050646 0.30432 0.15565 0.40483c0.092922 0.08893 0.39156 0.14238 0.39156 0.14238s-0.30012 0.08514-0.40133 0.18635c-0.081202 0.0812-0.14589 0.36087-0.14589 0.36087s-0.081892-0.29198-0.1717-0.38179c-0.092599-0.0926-0.37552-0.16543-0.37552-0.16543z"/>
    <path d="m-2.7825 22.924s0.14917-0.0351 0.20093-0.08703c0.051149-0.05133 0.095723-0.20962 0.095723-0.20962s0.027456 0.16498 0.084382 0.21946c0.050374 0.04821 0.21227 0.07719 0.21227 0.07719s-0.1627 0.04616-0.21756 0.10102c-0.04402 0.04402-0.079087 0.19563-0.079087 0.19563s-0.044394-0.15829-0.093078-0.20697c-0.050199-0.0502-0.20357-0.08968-0.20357-0.08968z"/>
    <path d="m8.9774 26.382s0.19117-0.04498 0.2575-0.11154c0.06555-0.06578 0.12267-0.26863 0.12267-0.26863s0.035186 0.21143 0.10814 0.28125c0.064557 0.06178 0.27203 0.09892 0.27203 0.09892s-0.20851 0.05915-0.27882 0.12946c-0.056414 0.05641-0.10135 0.25071-0.10135 0.25071s-0.056894-0.20285-0.11928-0.26524c-0.064332-0.06433-0.26089-0.11493-0.26089-0.11493z"/>
    <path d="m14.189 23.242s0.19117-0.04498 0.2575-0.11154c0.06555-0.06578 0.12268-0.26863 0.12268-0.26863s0.03519 0.21143 0.10814 0.28125c0.06456 0.06178 0.27203 0.09892 0.27203 0.09892s-0.20851 0.05915-0.27882 0.12946c-0.05641 0.05641-0.10135 0.25071-0.10135 0.25071s-0.05689-0.20285-0.11928-0.26524c-0.06433-0.06433-0.26089-0.11493-0.26089-0.11493z"/>
    <path d="m1.0261 25.547s0.19117-0.04498 0.2575-0.11154c0.06555-0.06578 0.12267-0.26863 0.12267-0.26863s0.035186 0.21143 0.10814 0.28125c0.064557 0.06178 0.27203 0.09892 0.27203 0.09892s-0.20851 0.05915-0.27882 0.12946c-0.056414 0.05641-0.10135 0.25071-0.10135 0.25071s-0.056894-0.20285-0.11928-0.26524c-0.064332-0.06433-0.26089-0.11493-0.26089-0.11493z"/>
    <path d="m12.851 11.869s0.02511 0.20347 0.08671 0.27982c0.06087 0.07545 0.26496 0.15762 0.26496 0.15762s-0.22339 0.01267-0.30409 0.0805c-0.0714 0.06003-0.13334 0.27116-0.13334 0.27116s-0.03787-0.22307-0.10291-0.30397c-0.05218-0.06491-0.24876-0.13347-0.24876-0.13347s0.21694-0.03616 0.28873-0.09388c0.07402-0.05951 0.1487-0.25779 0.1487-0.25779z"/>
    <path d="m9.0095 15.569s0.034628 0.28055 0.11956 0.38582c0.08393 0.10403 0.36532 0.21732 0.36532 0.21732s-0.30802 0.01747-0.41928 0.111c-0.09845 0.08277-0.18386 0.37388-0.18386 0.37388s-0.052212-0.30756-0.14189-0.41911c-0.07195-0.0895-0.34299-0.18403-0.34299-0.18403s0.29912-0.04986 0.3981-0.12944c0.10206-0.08205 0.20504-0.35544 0.20504-0.35544z"/>
    <path d="m8.7741 10.469s0.018776 0.15209 0.064809 0.20915c0.045503 0.0564 0.19804 0.11781 0.19804 0.11781s-0.16698 0.0095-0.2273 0.06017c-0.053371 0.04487-0.099675 0.20268-0.099675 0.20268s-0.028309-0.16673-0.07692-0.2272c-0.039006-0.04852-0.18594-0.09976-0.18594-0.09976s0.16216-0.02703 0.21582-0.07017c0.055331-0.04448 0.11115-0.19269 0.11115-0.19269z"/>
    <path d="m13.09 18.533s0.02406 0.19491 0.08306 0.26804c0.05831 0.07227 0.2538 0.15098 0.2538 0.15098s-0.21399 0.01213-0.29129 0.07711c-0.06839 0.0575-0.12774 0.25975-0.12774 0.25975s-0.03627-0.21368-0.09858-0.29117c-0.04998-0.06218-0.23829-0.12785-0.23829-0.12785s0.20781-0.03464 0.27658-0.08993c0.0709-0.057 0.14244-0.24694 0.14244-0.24694z"/>
    <path d="m3.724 16.572s0.02406 0.19491 0.083062 0.26804c0.058312 0.07227 0.2538 0.15098 0.2538 0.15098s-0.21399 0.01213-0.29129 0.07712c-0.068394 0.0575-0.12774 0.25975-0.12774 0.25975s-0.036273-0.21368-0.098576-0.29117c-0.049984-0.06218-0.23829-0.12785-0.23829-0.12785s0.20781-0.03464 0.27658-0.08993c0.070905-0.05701 0.14245-0.24694 0.14245-0.24694z"/>
    <path d="m1.793 10.51s0.02406 0.19491 0.083062 0.26804c0.058312 0.07227 0.2538 0.15098 0.2538 0.15098s-0.21399 0.01213-0.29129 0.07711c-0.068394 0.0575-0.12774 0.25975-0.12774 0.25975s-0.036273-0.21368-0.098577-0.29117c-0.049984-0.06218-0.23829-0.12785-0.23829-0.12785s0.20781-0.03464 0.27658-0.08993c0.070905-0.057 0.14245-0.24694 0.14245-0.24694z"/>
    <path d="m-2.6167 12.963s0.034628 0.28055 0.11956 0.38582c0.08393 0.10403 0.36532 0.21732 0.36532 0.21732s-0.30802 0.01747-0.41928 0.111c-0.09845 0.08277-0.18386 0.37388-0.18386 0.37388s-0.052212-0.30756-0.14189-0.41911c-0.07195-0.0895-0.34299-0.18403-0.34299-0.18403s0.29912-0.04986 0.3981-0.12944c0.10206-0.08205 0.20504-0.35544 0.20504-0.35544z"/>
   </g>
   <g transform="translate(38.22 16.907)" clip-path="url(#clipPath5204)">
    <path d="m-1.6973 17.985s0.19957-0.04695 0.26881-0.11644c0.06843-0.06867 0.12806-0.28044 0.12806-0.28044s0.036732 0.22072 0.11289 0.29361c0.067393 0.0645 0.28398 0.10326 0.28398 0.10326s-0.21767 0.06175-0.29107 0.13515c-0.058893 0.05889-0.10581 0.26172-0.10581 0.26172s-0.059393-0.21176-0.12453-0.2769c-0.067159-0.06716-0.27235-0.11998-0.27235-0.11998z"/>
    <path d="m5.269 21.672s0.27516-0.06474 0.37064-0.16055c0.094352-0.09468 0.17658-0.38667 0.17658-0.38667s0.050646 0.30432 0.15565 0.40483c0.092922 0.08893 0.39156 0.14238 0.39156 0.14238s-0.30012 0.08514-0.40133 0.18635c-0.081202 0.0812-0.14589 0.36087-0.14589 0.36087s-0.081892-0.29198-0.1717-0.38179c-0.092599-0.0926-0.37552-0.16543-0.37552-0.16543z"/>
    <path d="m-2.7825 22.924s0.14917-0.0351 0.20093-0.08703c0.051149-0.05133 0.095723-0.20962 0.095723-0.20962s0.027456 0.16498 0.084382 0.21946c0.050374 0.04821 0.21227 0.07719 0.21227 0.07719s-0.1627 0.04616-0.21756 0.10102c-0.04402 0.04402-0.079087 0.19563-0.079087 0.19563s-0.044394-0.15829-0.093078-0.20697c-0.050199-0.0502-0.20357-0.08968-0.20357-0.08968z"/>
    <path d="m8.9774 26.382s0.19117-0.04498 0.2575-0.11154c0.06555-0.06578 0.12267-0.26863 0.12267-0.26863s0.035186 0.21143 0.10814 0.28125c0.064557 0.06178 0.27203 0.09892 0.27203 0.09892s-0.20851 0.05915-0.27882 0.12946c-0.056414 0.05641-0.10135 0.25071-0.10135 0.25071s-0.056894-0.20285-0.11928-0.26524c-0.064332-0.06433-0.26089-0.11493-0.26089-0.11493z"/>
    <path d="m14.189 23.242s0.19117-0.04498 0.2575-0.11154c0.06555-0.06578 0.12268-0.26863 0.12268-0.26863s0.03519 0.21143 0.10814 0.28125c0.06456 0.06178 0.27203 0.09892 0.27203 0.09892s-0.20851 0.05915-0.27882 0.12946c-0.05641 0.05641-0.10135 0.25071-0.10135 0.25071s-0.05689-0.20285-0.11928-0.26524c-0.06433-0.06433-0.26089-0.11493-0.26089-0.11493z"/>
    <path d="m1.0261 25.547s0.19117-0.04498 0.2575-0.11154c0.06555-0.06578 0.12267-0.26863 0.12267-0.26863s0.035186 0.21143 0.10814 0.28125c0.064557 0.06178 0.27203 0.09892 0.27203 0.09892s-0.20851 0.05915-0.27882 0.12946c-0.056414 0.05641-0.10135 0.25071-0.10135 0.25071s-0.056894-0.20285-0.11928-0.26524c-0.064332-0.06433-0.26089-0.11493-0.26089-0.11493z"/>
    <path d="m12.851 11.869s0.02511 0.20347 0.08671 0.27982c0.06087 0.07545 0.26496 0.15762 0.26496 0.15762s-0.22339 0.01267-0.30409 0.0805c-0.0714 0.06003-0.13334 0.27116-0.13334 0.27116s-0.03787-0.22307-0.10291-0.30397c-0.05218-0.06491-0.24876-0.13347-0.24876-0.13347s0.21694-0.03616 0.28873-0.09388c0.07402-0.05951 0.1487-0.25779 0.1487-0.25779z"/>
    <path d="m9.0095 15.569s0.034628 0.28055 0.11956 0.38582c0.08393 0.10403 0.36532 0.21732 0.36532 0.21732s-0.30802 0.01747-0.41928 0.111c-0.09845 0.08277-0.18386 0.37388-0.18386 0.37388s-0.052212-0.30756-0.14189-0.41911c-0.07195-0.0895-0.34299-0.18403-0.34299-0.18403s0.29912-0.04986 0.3981-0.12944c0.10206-0.08205 0.20504-0.35544 0.20504-0.35544z"/>
    <path d="m8.7741 10.469s0.018776 0.15209 0.064809 0.20915c0.045503 0.0564 0.19804 0.11781 0.19804 0.11781s-0.16698 0.0095-0.2273 0.06017c-0.053371 0.04487-0.099675 0.20268-0.099675 0.20268s-0.028309-0.16673-0.07692-0.2272c-0.039006-0.04852-0.18594-0.09976-0.18594-0.09976s0.16216-0.02703 0.21582-0.07017c0.055331-0.04448 0.11115-0.19269 0.11115-0.19269z"/>
    <path d="m13.09 18.533s0.02406 0.19491 0.08306 0.26804c0.05831 0.07227 0.2538 0.15098 0.2538 0.15098s-0.21399 0.01213-0.29129 0.07711c-0.06839 0.0575-0.12774 0.25975-0.12774 0.25975s-0.03627-0.21368-0.09858-0.29117c-0.04998-0.06218-0.23829-0.12785-0.23829-0.12785s0.20781-0.03464 0.27658-0.08993c0.0709-0.057 0.14244-0.24694 0.14244-0.24694z"/>
    <path d="m3.724 16.572s0.02406 0.19491 0.083062 0.26804c0.058312 0.07227 0.2538 0.15098 0.2538 0.15098s-0.21399 0.01213-0.29129 0.07712c-0.068394 0.0575-0.12774 0.25975-0.12774 0.25975s-0.036273-0.21368-0.098576-0.29117c-0.049984-0.06218-0.23829-0.12785-0.23829-0.12785s0.20781-0.03464 0.27658-0.08993c0.070905-0.05701 0.14245-0.24694 0.14245-0.24694z"/>
    <path d="m1.793 10.51s0.02406 0.19491 0.083062 0.26804c0.058312 0.07227 0.2538 0.15098 0.2538 0.15098s-0.21399 0.01213-0.29129 0.07711c-0.068394 0.0575-0.12774 0.25975-0.12774 0.25975s-0.036273-0.21368-0.098577-0.29117c-0.049984-0.06218-0.23829-0.12785-0.23829-0.12785s0.20781-0.03464 0.27658-0.08993c0.070905-0.057 0.14245-0.24694 0.14245-0.24694z"/>
    <path d="m-2.6167 12.963s0.034628 0.28055 0.11956 0.38582c0.08393 0.10403 0.36532 0.21732 0.36532 0.21732s-0.30802 0.01747-0.41928 0.111c-0.09845 0.08277-0.18386 0.37388-0.18386 0.37388s-0.052212-0.30756-0.14189-0.41911c-0.07195-0.0895-0.34299-0.18403-0.34299-0.18403s0.29912-0.04986 0.3981-0.12944c0.10206-0.08205 0.20504-0.35544 0.20504-0.35544z"/>
   </g>
   <g transform="translate(-51.182 -25.057)" clip-path="url(#clipPath5200)">
    <path d="m86.851 78.889s0.19957-0.04695 0.26881-0.11644c0.06843-0.06867 0.12806-0.28044 0.12806-0.28044s0.03673 0.22072 0.11289 0.29361c0.06739 0.0645 0.28398 0.10326 0.28398 0.10326s-0.21767 0.06175-0.29107 0.13515c-0.05889 0.05889-0.10581 0.26172-0.10581 0.26172s-0.05939-0.21176-0.12453-0.2769c-0.06716-0.06716-0.27235-0.11998-0.27235-0.11998z"/>
    <path d="m94.887 80.17s0.27516-0.06474 0.37064-0.16055c0.09435-0.09468 0.17658-0.38667 0.17658-0.38667s0.05065 0.30432 0.15566 0.40483c0.09292 0.08893 0.39156 0.14238 0.39156 0.14238s-0.30012 0.08514-0.40132 0.18635c-0.0812 0.0812-0.14589 0.36087-0.14589 0.36087s-0.08189-0.29198-0.1717-0.38179c-0.0926-0.0926-0.37552-0.16543-0.37552-0.16543z"/>
    <path d="m98.627 72.864s0.03463 0.28055 0.11956 0.38582c0.08393 0.10403 0.36532 0.21732 0.36532 0.21732s-0.30802 0.01747-0.41928 0.111c-0.09845 0.08277-0.18386 0.37388-0.18386 0.37388s-0.05221-0.30756-0.14189-0.41911c-0.07195-0.0895-0.34299-0.18403-0.34299-0.18403s0.29912-0.04986 0.3981-0.12944c0.10206-0.08205 0.20504-0.35544 0.20504-0.35544z"/>
    <path d="m91.604 72.531s0.02406 0.19491 0.08306 0.26804c0.05831 0.07227 0.2538 0.15098 0.2538 0.15098s-0.21399 0.01213-0.29129 0.07712c-0.06839 0.0575-0.12774 0.25975-0.12774 0.25975s-0.03627-0.21368-0.09858-0.29117c-0.04998-0.06218-0.23829-0.12785-0.23829-0.12785s0.20781-0.03464 0.27658-0.08993c0.0709-0.05701 0.14244-0.24694 0.14244-0.24694z"/>
   </g>
   <g transform="translate(-104.1 -25.057)" clip-path="url(#clipPath5196)">
    <path d="m86.851 78.889s0.19957-0.04695 0.26881-0.11644c0.06843-0.06867 0.12806-0.28044 0.12806-0.28044s0.03673 0.22072 0.11289 0.29361c0.06739 0.0645 0.28398 0.10326 0.28398 0.10326s-0.21767 0.06175-0.29107 0.13515c-0.05889 0.05889-0.10581 0.26172-0.10581 0.26172s-0.05939-0.21176-0.12453-0.2769c-0.06716-0.06716-0.27235-0.11998-0.27235-0.11998z"/>
    <path d="m94.887 80.17s0.27516-0.06474 0.37064-0.16055c0.09435-0.09468 0.17658-0.38667 0.17658-0.38667s0.05065 0.30432 0.15566 0.40483c0.09292 0.08893 0.39156 0.14238 0.39156 0.14238s-0.30012 0.08514-0.40132 0.18635c-0.0812 0.0812-0.14589 0.36087-0.14589 0.36087s-0.08189-0.29198-0.1717-0.38179c-0.0926-0.0926-0.37552-0.16543-0.37552-0.16543z"/>
    <path d="m98.627 72.864s0.03463 0.28055 0.11956 0.38582c0.08393 0.10403 0.36532 0.21732 0.36532 0.21732s-0.30802 0.01747-0.41928 0.111c-0.09845 0.08277-0.18386 0.37388-0.18386 0.37388s-0.05221-0.30756-0.14189-0.41911c-0.07195-0.0895-0.34299-0.18403-0.34299-0.18403s0.29912-0.04986 0.3981-0.12944c0.10206-0.08205 0.20504-0.35544 0.20504-0.35544z"/>
    <path d="m91.604 72.531s0.02406 0.19491 0.08306 0.26804c0.05831 0.07227 0.2538 0.15098 0.2538 0.15098s-0.21399 0.01213-0.29129 0.07712c-0.06839 0.0575-0.12774 0.25975-0.12774 0.25975s-0.03627-0.21368-0.09858-0.29117c-0.04998-0.06218-0.23829-0.12785-0.23829-0.12785s0.20781-0.03464 0.27658-0.08993c0.0709-0.05701 0.14244-0.24694 0.14244-0.24694z"/>
   </g>
   <path d="m0.12488 52.162s0.19957-0.04695 0.26881-0.11644c0.06843-0.06867 0.12806-0.28044 0.12806-0.28044s0.03673 0.22072 0.11289 0.29361c0.06739 0.0645 0.28398 0.10326 0.28398 0.10326s-0.21767 0.06175-0.29107 0.13515c-0.05889 0.05889-0.10581 0.26172-0.10581 0.26172s-0.05939-0.21176-0.12453-0.2769c-0.06716-0.06716-0.27235-0.11998-0.27235-0.11998z" clip-path="url(#clipPath5192)"/>
   <path d="m6.6903 52.774s0.27516-0.06474 0.37064-0.16055c0.09435-0.09468 0.17658-0.38667 0.17658-0.38667s0.05065 0.30432 0.15566 0.40483c0.09292 0.08893 0.39156 0.14238 0.39156 0.14238s-0.30012 0.08514-0.40132 0.18635c-0.0812 0.0812-0.14589 0.36087-0.14589 0.36087s-0.08189-0.29198-0.1717-0.38179c-0.0926-0.0926-0.37552-0.16543-0.37552-0.16543z" clip-path="url(#clipPath5188)"/>
   <path d="m10.431 45.469s0.03463 0.28055 0.11956 0.38582c0.08393 0.10403 0.36532 0.21732 0.36532 0.21732s-0.30802 0.01747-0.41928 0.111c-0.09845 0.08277-0.18386 0.37388-0.18386 0.37388s-0.05221-0.30756-0.14189-0.41911c-0.07195-0.0895-0.34299-0.18403-0.34299-0.18403s0.29912-0.04986 0.3981-0.12944c0.10206-0.08205 0.20504-0.35544 0.20504-0.35544z" clip-path="url(#clipPath5184)"/>
   <path d="m1.6707 45.47s0.02406 0.19491 0.08306 0.26804c0.05831 0.07227 0.2538 0.15098 0.2538 0.15098s-0.21399 0.01213-0.29129 0.07712c-0.06839 0.0575-0.12774 0.25975-0.12774 0.25975s-0.03627-0.21368-0.09858-0.29117c-0.04998-0.06218-0.23829-0.12785-0.23829-0.12785s0.20781-0.03464 0.27658-0.08993c0.0709-0.05701 0.14244-0.24694 0.14244-0.24694z" clip-path="url(#clipPath5180)"/>
   <g transform="rotate(267.31 19.906 17.411)" clip-path="url(#clipPath5176)">
    <path d="m-1.6973 17.985s0.19957-0.04695 0.26881-0.11644c0.06843-0.06867 0.12806-0.28044 0.12806-0.28044s0.036732 0.22072 0.11289 0.29361c0.067393 0.0645 0.28398 0.10326 0.28398 0.10326s-0.21767 0.06175-0.29107 0.13515c-0.058893 0.05889-0.10581 0.26172-0.10581 0.26172s-0.059393-0.21176-0.12453-0.2769c-0.067159-0.06716-0.27235-0.11998-0.27235-0.11998z"/>
    <path d="m5.269 21.672s0.27516-0.06474 0.37064-0.16055c0.094352-0.09468 0.17658-0.38667 0.17658-0.38667s0.050646 0.30432 0.15565 0.40483c0.092922 0.08893 0.39156 0.14238 0.39156 0.14238s-0.30012 0.08514-0.40133 0.18635c-0.081202 0.0812-0.14589 0.36087-0.14589 0.36087s-0.081892-0.29198-0.1717-0.38179c-0.092599-0.0926-0.37552-0.16543-0.37552-0.16543z"/>
    <path d="m-2.7825 22.924s0.14917-0.0351 0.20093-0.08703c0.051149-0.05133 0.095723-0.20962 0.095723-0.20962s0.027456 0.16498 0.084382 0.21946c0.050374 0.04821 0.21227 0.07719 0.21227 0.07719s-0.1627 0.04616-0.21756 0.10102c-0.04402 0.04402-0.079087 0.19563-0.079087 0.19563s-0.044394-0.15829-0.093078-0.20697c-0.050199-0.0502-0.20357-0.08968-0.20357-0.08968z"/>
    <path d="m8.9774 26.382s0.19117-0.04498 0.2575-0.11154c0.06555-0.06578 0.12267-0.26863 0.12267-0.26863s0.035186 0.21143 0.10814 0.28125c0.064557 0.06178 0.27203 0.09892 0.27203 0.09892s-0.20851 0.05915-0.27882 0.12946c-0.056414 0.05641-0.10135 0.25071-0.10135 0.25071s-0.056894-0.20285-0.11928-0.26524c-0.064332-0.06433-0.26089-0.11493-0.26089-0.11493z"/>
    <path d="m14.189 23.242s0.19117-0.04498 0.2575-0.11154c0.06555-0.06578 0.12268-0.26863 0.12268-0.26863s0.03519 0.21143 0.10814 0.28125c0.06456 0.06178 0.27203 0.09892 0.27203 0.09892s-0.20851 0.05915-0.27882 0.12946c-0.05641 0.05641-0.10135 0.25071-0.10135 0.25071s-0.05689-0.20285-0.11928-0.26524c-0.06433-0.06433-0.26089-0.11493-0.26089-0.11493z"/>
    <path d="m1.0261 25.547s0.19117-0.04498 0.2575-0.11154c0.06555-0.06578 0.12267-0.26863 0.12267-0.26863s0.035186 0.21143 0.10814 0.28125c0.064557 0.06178 0.27203 0.09892 0.27203 0.09892s-0.20851 0.05915-0.27882 0.12946c-0.056414 0.05641-0.10135 0.25071-0.10135 0.25071s-0.056894-0.20285-0.11928-0.26524c-0.064332-0.06433-0.26089-0.11493-0.26089-0.11493z"/>
    <path d="m12.851 11.869s0.02511 0.20347 0.08671 0.27982c0.06087 0.07545 0.26496 0.15762 0.26496 0.15762s-0.22339 0.01267-0.30409 0.0805c-0.0714 0.06003-0.13334 0.27116-0.13334 0.27116s-0.03787-0.22307-0.10291-0.30397c-0.05218-0.06491-0.24876-0.13347-0.24876-0.13347s0.21694-0.03616 0.28873-0.09388c0.07402-0.05951 0.1487-0.25779 0.1487-0.25779z"/>
    <path d="m9.0095 15.569s0.034628 0.28055 0.11956 0.38582c0.08393 0.10403 0.36532 0.21732 0.36532 0.21732s-0.30802 0.01747-0.41928 0.111c-0.09845 0.08277-0.18386 0.37388-0.18386 0.37388s-0.052212-0.30756-0.14189-0.41911c-0.07195-0.0895-0.34299-0.18403-0.34299-0.18403s0.29912-0.04986 0.3981-0.12944c0.10206-0.08205 0.20504-0.35544 0.20504-0.35544z"/>
    <path d="m8.7741 10.469s0.018776 0.15209 0.064809 0.20915c0.045503 0.0564 0.19804 0.11781 0.19804 0.11781s-0.16698 0.0095-0.2273 0.06017c-0.053371 0.04487-0.099675 0.20268-0.099675 0.20268s-0.028309-0.16673-0.07692-0.2272c-0.039006-0.04852-0.18594-0.09976-0.18594-0.09976s0.16216-0.02703 0.21582-0.07017c0.055331-0.04448 0.11115-0.19269 0.11115-0.19269z"/>
    <path d="m13.09 18.533s0.02406 0.19491 0.08306 0.26804c0.05831 0.07227 0.2538 0.15098 0.2538 0.15098s-0.21399 0.01213-0.29129 0.07711c-0.06839 0.0575-0.12774 0.25975-0.12774 0.25975s-0.03627-0.21368-0.09858-0.29117c-0.04998-0.06218-0.23829-0.12785-0.23829-0.12785s0.20781-0.03464 0.27658-0.08993c0.0709-0.057 0.14244-0.24694 0.14244-0.24694z"/>
    <path d="m3.724 16.572s0.02406 0.19491 0.083062 0.26804c0.058312 0.07227 0.2538 0.15098 0.2538 0.15098s-0.21399 0.01213-0.29129 0.07712c-0.068394 0.0575-0.12774 0.25975-0.12774 0.25975s-0.036273-0.21368-0.098576-0.29117c-0.049984-0.06218-0.23829-0.12785-0.23829-0.12785s0.20781-0.03464 0.27658-0.08993c0.070905-0.05701 0.14245-0.24694 0.14245-0.24694z"/>
    <path d="m1.793 10.51s0.02406 0.19491 0.083062 0.26804c0.058312 0.07227 0.2538 0.15098 0.2538 0.15098s-0.21399 0.01213-0.29129 0.07711c-0.068394 0.0575-0.12774 0.25975-0.12774 0.25975s-0.036273-0.21368-0.098577-0.29117c-0.049984-0.06218-0.23829-0.12785-0.23829-0.12785s0.20781-0.03464 0.27658-0.08993c0.070905-0.057 0.14245-0.24694 0.14245-0.24694z"/>
    <path d="m-2.6167 12.963s0.034628 0.28055 0.11956 0.38582c0.08393 0.10403 0.36532 0.21732 0.36532 0.21732s-0.30802 0.01747-0.41928 0.111c-0.09845 0.08277-0.18386 0.37388-0.18386 0.37388s-0.052212-0.30756-0.14189-0.41911c-0.07195-0.0895-0.34299-0.18403-0.34299-0.18403s0.29912-0.04986 0.3981-0.12944c0.10206-0.08205 0.20504-0.35544 0.20504-0.35544z"/>
   </g>
   <g transform="translate(-55.124 -59.067)" clip-path="url(#clipPath5172)">
    <path d="m86.851 78.889s0.19957-0.04695 0.26881-0.11644c0.06843-0.06867 0.12806-0.28044 0.12806-0.28044s0.03673 0.22072 0.11289 0.29361c0.06739 0.0645 0.28398 0.10326 0.28398 0.10326s-0.21767 0.06175-0.29107 0.13515c-0.05889 0.05889-0.10581 0.26172-0.10581 0.26172s-0.05939-0.21176-0.12453-0.2769c-0.06716-0.06716-0.27235-0.11998-0.27235-0.11998z"/>
    <path d="m94.887 80.17s0.27516-0.06474 0.37064-0.16055c0.09435-0.09468 0.17658-0.38667 0.17658-0.38667s0.05065 0.30432 0.15566 0.40483c0.09292 0.08893 0.39156 0.14238 0.39156 0.14238s-0.30012 0.08514-0.40132 0.18635c-0.0812 0.0812-0.14589 0.36087-0.14589 0.36087s-0.08189-0.29198-0.1717-0.38179c-0.0926-0.0926-0.37552-0.16543-0.37552-0.16543z"/>
    <path d="m98.627 72.864s0.03463 0.28055 0.11956 0.38582c0.08393 0.10403 0.36532 0.21732 0.36532 0.21732s-0.30802 0.01747-0.41928 0.111c-0.09845 0.08277-0.18386 0.37388-0.18386 0.37388s-0.05221-0.30756-0.14189-0.41911c-0.07195-0.0895-0.34299-0.18403-0.34299-0.18403s0.29912-0.04986 0.3981-0.12944c0.10206-0.08205 0.20504-0.35544 0.20504-0.35544z"/>
    <path d="m91.604 72.531s0.02406 0.19491 0.08306 0.26804c0.05831 0.07227 0.2538 0.15098 0.2538 0.15098s-0.21399 0.01213-0.29129 0.07712c-0.06839 0.0575-0.12774 0.25975-0.12774 0.25975s-0.03627-0.21368-0.09858-0.29117c-0.04998-0.06218-0.23829-0.12785-0.23829-0.12785s0.20781-0.03464 0.27658-0.08993c0.0709-0.05701 0.14244-0.24694 0.14244-0.24694z"/>
   </g>
   <path d="m2.5276 32.116s0.19957-0.04695 0.26881-0.11644c0.06843-0.06867 0.12806-0.28044 0.12806-0.28044s0.03673 0.22072 0.11289 0.29361c0.06739 0.0645 0.28398 0.10326 0.28398 0.10326s-0.21767 0.06175-0.29107 0.13515c-0.05889 0.05889-0.10581 0.26172-0.10581 0.26172s-0.05939-0.21176-0.12453-0.2769c-0.06716-0.06716-0.27235-0.11998-0.27235-0.11998z" clip-path="url(#clipPath5168)"/>
   <path d="m8.7589 33.197s0.27516-0.06474 0.37064-0.16055c0.09435-0.09468 0.17658-0.38667 0.17658-0.38667s0.05065 0.30432 0.15566 0.40483c0.09292 0.08893 0.39156 0.14238 0.39156 0.14238s-0.30012 0.08514-0.40132 0.18635c-0.0812 0.0812-0.14589 0.36087-0.14589 0.36087s-0.08189-0.29198-0.1717-0.38179c-0.0926-0.0926-0.37552-0.16543-0.37552-0.16543z" clip-path="url(#clipPath5164)"/>
   <path d="m5.8845 38.119s0.03463 0.28055 0.11956 0.38582c0.08393 0.10403 0.36532 0.21732 0.36532 0.21732s-0.30802 0.01747-0.41928 0.111c-0.09845 0.08277-0.18386 0.37388-0.18386 0.37388s-0.05221-0.30756-0.14189-0.41911c-0.07195-0.0895-0.34299-0.18403-0.34299-0.18403s0.29912-0.04986 0.3981-0.12944c0.10206-0.08205 0.20504-0.35544 0.20504-0.35544z" clip-path="url(#clipPath5160)"/>
   <path d="m5.4766 25.559s0.02406 0.19491 0.08306 0.26804c0.05831 0.07227 0.2538 0.15098 0.2538 0.15098s-0.21399 0.01213-0.29129 0.07712c-0.06839 0.0575-0.12774 0.25975-0.12774 0.25975s-0.03627-0.21368-0.09858-0.29117c-0.04998-0.06218-0.23829-0.12785-0.23829-0.12785s0.20781-0.03464 0.27658-0.08993c0.0709-0.05701 0.14244-0.24694 0.14244-0.24694z" clip-path="url(#clipPath5156)"/>
   <path d="m18.18 18.297s0.27516-0.06474 0.37064-0.16055c0.09435-0.09468 0.17658-0.38667 0.17658-0.38667s0.05065 0.30432 0.15566 0.40483c0.09292 0.08893 0.39156 0.14238 0.39156 0.14238s-0.30012 0.08514-0.40132 0.18635c-0.0812 0.0812-0.14589 0.36087-0.14589 0.36087s-0.08189-0.29198-0.1717-0.38179c-0.0926-0.0926-0.37552-0.16543-0.37552-0.16543z" clip-path="url(#clipPath5152)"/>
   <path d="m30.39 46.081s0.19957-0.04695 0.26881-0.11644c0.06843-0.06867 0.12806-0.28044 0.12806-0.28044s0.03673 0.22072 0.11289 0.29361c0.06739 0.0645 0.28398 0.10326 0.28398 0.10326s-0.21767 0.06175-0.29107 0.13515c-0.05889 0.05889-0.10581 0.26172-0.10581 0.26172s-0.05939-0.21176-0.12453-0.2769c-0.06716-0.06716-0.27235-0.11998-0.27235-0.11998z" clip-path="url(#clipPath5148)"/>
   <path d="m19.785 44.801s0.03463 0.28055 0.11956 0.38582c0.08393 0.10403 0.36532 0.21732 0.36532 0.21732s-0.30802 0.01747-0.41928 0.111c-0.09845 0.08277-0.18386 0.37388-0.18386 0.37388s-0.05221-0.30756-0.14189-0.41911c-0.07195-0.0895-0.34299-0.18403-0.34299-0.18403s0.29912-0.04986 0.3981-0.12944c0.10206-0.08205 0.20504-0.35544 0.20504-0.35544z" clip-path="url(#clipPath5144)"/>
   <path d="m38.962 57.363s0.03463 0.28055 0.11956 0.38582c0.08393 0.10403 0.36532 0.21732 0.36532 0.21732s-0.30802 0.01747-0.41928 0.111c-0.09845 0.08277-0.18386 0.37388-0.18386 0.37388s-0.05221-0.30756-0.14189-0.41911c-0.07195-0.0895-0.34299-0.18403-0.34299-0.18403s0.29912-0.04986 0.3981-0.12944c0.10206-0.08205 0.20504-0.35544 0.20504-0.35544z" clip-path="url(#clipPath5140)"/>
  </g>
 </g>
 <g transform="translate(-205.31 -63.48)" display="none">
  <path transform="translate(66.303 -34.523)" d="m56.546 87.311c-9.8941 1.1384-5.1769 11.865-7.4257 10.244-5.1905-3.7431-5.7291-8.106-5.7291-10.742 0-5.3423 2.8264-7.8443 5.9964-8.5038 13.327-2.7729 12.128 8.4304 7.1584 9.0022zm6.7469 0c9.8941 1.1384 5.1769 11.865 7.4257 10.244 5.1905-3.7431 5.7291-8.106 5.7291-10.742 0-5.3423-2.8264-7.8443-5.9964-8.5038-13.327-2.7729-12.128 8.4304-7.1584 9.0022z" fill="#6c166c"/>
  <path d="m132.89 43.344c-4.2662-0.0042-6.2309 1.9362-6.6662 4.0607 0.12933 0.63116 0.12071 1.2774 0 1.895 0.34483 1.7641 1.623 3.2857 3.3734 3.4871 9.8941 1.1384 5.1772 11.865 7.4259 10.244 5.1905-3.7431 5.7289-8.1058 5.7289-10.742 0-5.3423-2.8265-7.8443-5.9965-8.5039-1.4577-0.30329-2.7412-0.43971-3.8654-0.4408zm-6.6662 5.9557c-0.12073-0.6176-0.12935-1.2638 0-1.895-0.26525-1.2944-1.099-2.5194-2.6748-3.2789v8.5039c1.3887-0.47047 2.3777-1.8102 2.6748-3.33z" fill-opacity=".225"/>
  <g>
   <path transform="matrix(1.0524 0 0 1.221 29.214 -31.404)" d="m92.179 69.175v6.0004s-1.5991 0.2063-5.0554-0.6523c-3.3995-0.84449 5.0554-5.3481 5.0554-5.3481zm0 0v6.0004s1.5991 0.2063 5.0554-0.6523c3.3995-0.84449-5.0554-5.3481-5.0554-5.3481z" fill="#3e3e3e" stroke-width=".2497"/>
   <path transform="matrix(1.5518 0 0 1.5179 75.267 -65.559)" d="m24.949 63.078c-0.04971-5.2509 7.8881-7.3689 7.8881-7.3689v23.812c-0.46548-9e-6 -2.6077-0.10778-2.9255-0.67156-2.7124-4.8119-4.9233-11.618-4.9626-15.772zm15.776 0c0.04971-5.2509-7.8881-7.3689-7.8881-7.3689v23.812c0.46548-9e-6 2.6077-0.10778 2.9255-0.67156 2.7124-4.8119 4.9233-11.618 4.9626-15.772z" fill="#ffe8ff" stroke-width=".26458"/>
   <ellipse cx="126.22" cy="30.08" rx="8.7643" ry="4.8192" fill="#520052"/>
   <path d="m126.22 25.261a8.7643 4.8192 0 0 0-8.7643 4.8193 8.7643 4.8192 0 0 0 0.0227 0.3452 7.8222 4.8802 2.2333 0 0 7.8533 3.8339 7.8222 4.8802 2.2333 0 0 7.5153-4.886 7.8222 4.8802 2.2333 0 0-2.805-3.623 8.7643 4.8192 0 0 0-3.822-0.48938z" fill="#7a0079"/>
   <ellipse transform="matrix(.93388 -.35759 .60708 .79464 0 0)" cx="83.888" cy="72.489" rx="1.5354" ry="1.003" fill="#fafafa"/>
  </g>
  <path d="m138.37 31.873c-0.28143 1.4906-3.1443 16.063-7.8471 17.231-3.2442 0.80602-4.1093-5.3418-4.1093-5.3418l-0.19585 9.2971s-1.1584 0.92816-2.6014 0.47956c-1.7222-0.53541-4.0418-3.976-4.8953-5.3191 0.91095 2.0833 1.9098 4.0879 2.9569 5.9051 0.49315 0.85575 3.8175 1.0196 4.5398 1.0196 0.72232-1.4e-5 4.0466-0.16382 4.5398-1.0196 3.8523-6.6848 7.0508-15.903 7.6125-22.252z" fill-opacity=".24"/>
  <g>
   <path d="m125.72 56.042a6.2366 3.3545 0 0 0-4.9868 1.3472c-0.82154 0.98792-1.0441 1.8509 0.16847 2.2004 3.6374 1.0484 5.3201 0.79633 5.3201 0.79633s1.6827 0.25202 5.3201-0.79633c0.16278-0.04692 0.29924-0.10347 0.41238-0.16795a6.2366 3.3545 0 0 0 3e-3 -0.02532 6.2366 3.3545 0 0 0-6.2368-3.3543z" fill="#4a4a4a"/>
   <path d="m127.47 49.77c0 5.4927-0.56056 13.5-1.252 13.5-0.69149 0-1.252-8.0077-1.252-13.5 0-5.4927 0.56056-6.3905 1.252-6.3905 0.69148-5e-6 1.252 0.89776 1.252 6.3905z" fill="#4e104e" stroke-width=".27997"/>
   <path d="m126.22 43.38c-0.69149 0-1.2521 0.89756-1.2521 6.3903 0 1.7792 0.0639 3.8131 0.16691 5.7624 0.22591 2.9271 0.56961 5.2963 0.96015 5.2963 0.68095 0 1.233-7.1404 1.233-12.038 0-2.625-0.15934-4.066-0.41135-4.8447-0.19911-0.44092-0.43885-0.56638-0.69659-0.56638z" fill="#6c166c" stroke-width=".26234"/>
  </g>
 </g>
 <g transform="translate(-205.31 -63.48)" display="none">
  <g transform="rotate(90 168.18 95.373)" display="inline">
   <path transform="translate(53.55 3.9337)" d="m56.546 87.311c-9.8941 1.1384-5.1769 11.865-7.4257 10.244-5.1905-3.7431-5.7291-8.106-5.7291-10.742 0-5.3423 2.8264-7.8443 5.9964-8.5038 13.327-2.7729 12.128 8.4304 7.1584 9.0022zm6.7469 0c9.8941 1.1384 5.1769 11.865 7.4257 10.244 5.1905-3.7431 5.7291-8.106 5.7291-10.742 0-5.3423-2.8264-7.8443-5.9964-8.5038-13.327-2.7729-12.128 8.4304-7.1584 9.0022z" fill="#6c166c"/>
   <path d="m120.14 81.801c-4.2662-0.0042-6.2309 1.9362-6.6663 4.0607 0.12933 0.63116 0.12072 1.2774 0 1.895 0.34483 1.7641 1.623 3.2857 3.3734 3.4871 9.8941 1.1384 5.1772 11.865 7.4259 10.244 5.1905-3.7431 5.7288-8.1058 5.7288-10.742 0-5.3423-2.8265-7.8443-5.9965-8.5039-1.4577-0.30329-2.7412-0.43971-3.8654-0.4408zm-6.6663 5.9557c-0.12072-0.6176-0.12934-1.2638 0-1.895-0.26524-1.2944-1.099-2.5194-2.6748-3.2789v8.5039c1.3887-0.47047 2.3777-1.8102 2.6748-3.33z" fill-opacity=".225"/>
   <g>
    <path transform="matrix(1.0524 0 0 1.221 16.461 7.0536)" d="m92.179 69.175v6.0004s-1.5991 0.2063-5.0554-0.6523c-3.3995-0.84449 5.0554-5.3481 5.0554-5.3481zm0 0v6.0004s1.5991 0.2063 5.0554-0.6523c3.3995-0.84449-5.0554-5.3481-5.0554-5.3481z" fill="#3e3e3e" stroke-width=".2497"/>
    <path transform="matrix(1.5518 0 0 1.5179 62.514 -27.101)" d="m24.949 63.078c-0.04971-5.2509 7.8881-7.3689 7.8881-7.3689v23.812c-0.46548-9e-6 -2.6077-0.10778-2.9255-0.67156-2.7124-4.8119-4.9233-11.618-4.9626-15.772zm15.776 0c0.04971-5.2509-7.8881-7.3689-7.8881-7.3689v23.812c0.46548-9e-6 2.6077-0.10778 2.9255-0.67156 2.7124-4.8119 4.9233-11.618 4.9626-15.772z" fill="#ffe8ff" stroke-width=".26458"/>
    <ellipse cx="113.47" cy="68.537" rx="8.7643" ry="4.8192" fill="#520052"/>
    <path d="m113.47 63.718a8.7643 4.8192 0 0 0-8.7643 4.8193 8.7643 4.8192 0 0 0 0.0227 0.3452 7.8222 4.8802 2.2333 0 0 7.8533 3.8339 7.8222 4.8802 2.2333 0 0 7.5153-4.886 7.8222 4.8802 2.2333 0 0-2.805-3.623 8.7643 4.8192 0 0 0-3.822-0.48938z" fill="#7a0079"/>
    <ellipse transform="matrix(.93388 -.35759 .60708 .79464 0 0)" cx="48.982" cy="105.18" rx="1.5354" ry="1.003" fill="#fafafa"/>
   </g>
   <path d="m125.62 70.33c-0.28142 1.4906-3.1443 16.063-7.8471 17.231-3.2442 0.80602-4.1093-5.3418-4.1093-5.3418l-0.19585 9.2971s-1.1584 0.92816-2.6014 0.47956c-1.7222-0.53541-4.0418-3.976-4.8953-5.3191 0.91094 2.0833 1.9097 4.0879 2.9569 5.9051 0.49315 0.85575 3.8174 1.0196 4.5398 1.0196 0.72232-1.3e-5 4.0466-0.16382 4.5398-1.0196 3.8523-6.6848 7.0508-15.903 7.6125-22.252z" fill-opacity=".24"/>
   <g>
    <path d="m112.97 94.499a6.2366 3.3545 0 0 0-4.9868 1.3472c-0.82155 0.98792-1.0441 1.8509 0.16846 2.2004 3.6374 1.0484 5.3201 0.79633 5.3201 0.79633s1.6827 0.25202 5.3201-0.79633c0.16278-0.04692 0.29924-0.10347 0.41238-0.16795a6.2366 3.3545 0 0 0 3e-3 -0.02532 6.2366 3.3545 0 0 0-6.2368-3.3543z" fill="#4a4a4a"/>
    <path d="m114.72 88.228c0 5.4927-0.56056 13.5-1.252 13.5s-1.252-8.0077-1.252-13.5c0-5.4927 0.56056-6.3905 1.252-6.3905 0.69149-5e-6 1.252 0.89776 1.252 6.3905z" fill="#4e104e" stroke-width=".27997"/>
    <path d="m113.47 81.837c-0.69149 0-1.2521 0.89756-1.2521 6.3903 0 1.7792 0.0639 3.8131 0.16692 5.7624 0.2259 2.9271 0.56961 5.2963 0.96014 5.2963 0.68095 0 1.233-7.1404 1.233-12.038 0-2.625-0.15933-4.066-0.41134-4.8447-0.19911-0.44092-0.43886-0.56638-0.6966-0.56638z" fill="#6c166c" stroke-width=".26234"/>
   </g>
  </g>
 </g>
 <g transform="translate(-109.23 -63.857)" display="none">
  <path d="m10.648 50.696h6.1565l2.8148-3.9532h16.078l2.8828 3.9532h5.943v9.436h-33.875z" fill="#191332" stroke="#fff" stroke-width=".25834"/>
  <path d="m1.5136 82.211h14.683l3.4963-3.3183h25.731l0.01845 9.0302-5.7096 5.7581h-38.219z" fill="#4d004d" stroke="#fff" stroke-width=".284"/>
  <g fill="#fff" stroke="#fff">
   <path d="m1.3244 78.893h10.783l-2.6718 2.523h-8.1108z" stroke-width=".15691"/>
   <path d="m45.114 89.987-3.3191 3.3545h3.3191z" stroke-width=".26458px"/>
   <path d="m16.276 78.893h2.2507l-2.6802 2.5224h-2.2206z" stroke-width=".26458px"/>
  </g>
  <text x="26.212645" y="88.484261" fill="#ffffff" font-family="sans-serif" font-size="8.4667px" letter-spacing="0px" stroke-width=".26458" word-spacing="0px" style="line-height:1.25" xml:space="preserve"><tspan x="26.212645" y="88.484261" fill="#ffffff" font-family="'Courier New'" font-size="8.4667px" stroke-width=".26458">1</tspan></text>
  <path d="m13.101 78.893h2.2507l-2.6802 2.5224h-2.2206z" fill="#fff" stroke="#fff" stroke-width=".26458px"/>
  <path d="m62.861 89.398-5.1878-7.1962s3.5683-5.1178 5.1878-7.4629h8.3256l2.8277 2.7524h18.211l2.8277-2.7524h8.3251l5.1883 7.4629s-3.6606 5.0522-5.1883 7.1962z" fill="#4d004d" stroke="#fff" stroke-width=".26458px"/>
  <g fill="#fff" stroke="#fff">
   <path d="m78.36 74.605h9.5258l-2.2749 2.1923h-4.8696z" stroke-width=".15691"/>
   <g stroke-width=".26458px">
    <path d="m91.96 74.671h2.1514l-2.1841 2.1255h-2.2206z"/>
    <path d="m88.785 74.671h2.1514l-2.1841 2.1255h-2.2206z"/>
    <path d="m74.289 74.671h-2.1514l2.1841 2.1255h2.2206z"/>
    <path d="m77.464 74.671h-2.1514l2.1841 2.1255h2.2206z"/>
   </g>
  </g>
  <text x="76.233414" y="86.239174" fill="#ffffff" font-family="sans-serif" font-size="7.0556px" letter-spacing="0px" stroke-width=".26458" word-spacing="0px" style="line-height:1.25" xml:space="preserve"><tspan x="76.233414" y="86.239174" fill="#ffffff" font-family="'Courier New'" font-size="7.0556px" stroke-width=".26458">1+1</tspan></text>
 </g>
</svg>
